M48
;Layer_Color=9474304
;FILE_FORMAT=4:4
METRIC,LZ
;TYPE=PLATED
T1F00S00C0.3000
T2F00S00C0.8000
T3F00S00C1.0000
T4F00S00C1.1000
T5F00S00C1.2600
T6F00S00C1.5000
T7F00S00C2.0000
T8F00S00C3.1000
;TYPE=NON_PLATED
T9F00S00C0.9000
%
T01
X00914Y001
X00899Y0013
X0093Y00132
X00869Y0013
X0084Y00132
X00839Y0007
X00809
X00791Y00066
X0074375Y0007425
X007625Y0003575
X007735Y000125
X0081Y00012
X00839Y0001
X00869
X00854Y0004
X00825Y00042
X00885Y00102
X006835Y0010675
X00687Y0012075
X0066725Y0012025
X0069425Y0013925
X00709785Y00013751
X00657Y0001925
X0058225Y00086
X005685Y0007425
X00479Y0007
X00423Y000755
X004025Y0007575
X0039625Y000915
X003925Y0011125
X00381019Y00111255
X0037Y001125
X0035525
X00355Y001325
X00364
X0037325Y0013225
X00346Y001325
X0033175Y001205
X0031825Y0013075
X0031525Y0014225
X00325Y001405
X0030725Y00117
X00299Y00114
X0029175Y001185
X0027575Y001095
X00237Y001035
X0023475Y0009425
X002235Y0010325
X00215Y00096
X0021725Y001155
X00202Y0012525
X00225Y00139
X00239Y0013
X0024Y00072
X00221Y0007625
X0021Y0007
X0018
X001865Y000995
X0011675Y00099
X00115Y0013
X00333Y0008475
X003435Y0008075
X0034125Y0006925
X0035775Y00078
X003655Y000625
X00318015Y00058753
X0035275Y00024
X0009Y00012
X0006Y0013
X0003
X00045Y0016
X0006Y0019
X0003
X0004175Y00221
X00075Y0022
X00095Y00291
X0007725Y0031275
X0006275Y003125
X0006875Y003225
X0005325Y0034825
X00042Y0036425
X00016Y0034325
X00033Y00291
X00092Y0034825
X00074397Y0039425
X0002325Y0040675
X0004Y00432
X00055Y004675
X00084Y0049475
X000965Y005065
X001075Y0049075
X00112Y004405
X0013325Y004345
X001495Y004365
X00165Y0046
X00187509Y00444522
X0019025Y00434
X0024Y0043
X00255Y0046
X00284Y0046
X00314
X00345Y00462
X00375
X00404Y0046
X0042Y00432
X00389Y0043
X00359
X00329
X003Y00432
X00285Y00402
X00315
X003Y00372
X0033
X0036
X00345Y00342
X00315
X00284Y0034
X00299Y0031
X003205Y0028325
X00344Y0028
X00359Y0031
X00375Y00342
X00405
X00402Y0036725
X00433875Y00368375
X004525Y0041325
X00449Y0049
X00479
X00464Y0052
X00434
X00405Y00522
X0039Y00492
X0042
X0033
X0026325Y005395
X00255Y004
X0024Y0037
Y0031
X0025Y0029175
X0023975Y002725
X00230511Y00271013
X00207Y00263
X0020825Y00245
X00233Y002365
X00265Y0023925
X0026975Y0021225
X00276Y00203
X002985Y00196
X00318Y001885
X0032525Y001805
X0031475Y0017075
X00315265Y00159508
Y00151007
X0029875Y001535
X0028875Y00153
X00308265Y00164758
X00263513Y00159258
X00254Y0015525
X0024025Y001495
X002185Y001585
X0019375Y0015875
X0017775Y001555
Y001665
Y001775
Y001995
Y002215
X0017775Y0023575
X00175Y0025
X0016Y0024
X0015
X0013
X00125Y002555
X0011625Y0025575
X00135Y0022
X0015Y0019
X0012925Y001675
X00115Y0015
X00247762Y0019776
X0033525Y002
X0034675Y001995
X0036175Y002
X0035425Y0018425
X0036025Y0016475
X003505Y00153
X003775Y0014725
X0041275Y001455
X00421021Y00149257
X00429021Y00153507
X00429Y002005
X0043375Y00225
X00425Y00235
X004415Y0024825
X0046075Y002485
X00449Y0031
X0037725Y002355
X0035525Y002275
X00319Y00232
X00319266Y00240512
X003Y00252
X002755Y00284
X0021251Y00333016
X00197Y00342
X00194Y00354
X0014075Y00365
X0012825Y0035475
X0011475Y003575
Y0033975
X0015825Y002875
X0039525Y0021425
X00499Y00198
X0057Y00192
X00599Y0019
X00614Y0016
X00644
X00659Y0019
X00645Y00222
X00615
X00585
X00555
X00569Y0025
X00599
X00584Y0028
X00555Y00282
X00569Y0031
X006Y00312
X00629Y0031
X0066Y00312
X0065475Y0032475
X00645Y00342
X00615
X00584Y0034
X00554
X00525Y00342
X00524Y004
X00494
X00554
X00585Y00402
X00615
X00644Y004
X00675Y00402
X00663Y00385
X00674Y0034
X007035Y0033875
X0070325Y003495
Y0035975
X00705Y00402
X00719Y0043
X00749
X00779
X0081Y00432
X0084
X00869Y0043
X00854Y004
X00825Y00402
X00794Y004
X00765Y00402
X00749Y0037
X0074975Y003535
X00749Y0031
X00689
X00674Y0028
X00704
X00689Y0025
X0066Y00252
X00645Y00282
X00615
X00675Y00222
X00695Y001595
X00765Y00162
X00794Y0016
X00825Y00162
X00839Y0019
X00869
X00884Y0016
X0087Y00252
X0084
X00795Y00282
X00794Y0034
X00824
Y0046
X00854
X00884
X00795Y00462
X00764Y0046
X00734
X00704
X00675Y00462
X00645
X0063Y00432
X006
Y00492
X0057
X00539Y0049
X00509
X00524Y0052
X00554
X00585Y00522
X00615
X0063Y00492
X00689Y0049
X0072Y00492
X0075
X00809Y0049
X00794Y0052
X00652Y00538
X0069Y00432
X00765Y00222
X00794Y0022
X00494Y0028
X00495Y00522
X0093Y00492
X00929Y0043
X00899
X00908Y003865
X00899Y0031
X00915Y00222
X009Y00192
X00914Y0016
X00869Y0055
X00839
X0072Y00552
X00652Y00557
X0020025Y0054725
X0009Y0055
T02
X00525Y0013425
X0081075Y001035
X0085575
X0001625Y0030225
Y0032225
X001845Y00534
X0022875
X0030975
X00354
X0044325Y00451253
X0046325
X0048325
X0050325
X0052325
X0054325
X0056325
X0058325
X0060325
X0062325
X0073275Y00413
X0077775
Y003425
X0073275
Y00274
X0077775
X0081075
Y003035
X0085575
Y00274
X0088875
Y003425
X0085575Y00374
X0081075
X0088875Y00413
X00829Y00534
X0078475
X0077775Y002035
X0081075
X0081075Y00174
X0085575
X0085575Y002035
X0088875
X0073275
X00525Y0019425
Y0021425
Y0023425
Y0025425
Y0027425
Y0029425
Y0031425
Y0017425
Y0015425
X0093375Y002035
Y00274
Y003425
Y00413
T03
X005178Y0003865
X005432
X005686
X00594
X006194
X006448
X004924
X00467
X004416
X004162
X003908
X003654
X0034
X003146
X002892
X002638
X002384
X00213
X001876
X001622
T04
X00266897Y0039575
T05
X00341397Y0039575
T06
X001695Y0050675
X0024375
X0029475
X00369
X0076975
X00844
T07
X006834Y0003875
X001235
Y005385
X006834
T08
X009Y0005
X0005
Y0052
X009
T09
X00049397Y003965
Y004405
M30
