G04 Layer_Color=16711935*
%FSLAX44Y44*%
%MOMM*%
G71*
G01*
G75*
%ADD23C,0.9000*%
%ADD64C,7.1000*%
%ADD65C,2.1000*%
%ADD66C,3.1000*%
%ADD67C,0.1000*%
%ADD68C,5.1000*%
%ADD69O,2.1000X3.1000*%
%ADD70O,2.1000X1.4000*%
%ADD71O,1.6000X2.1000*%
%ADD72O,2.1000X1.6000*%
G04:AMPARAMS|DCode=73|XSize=0.8mm|YSize=1.5mm|CornerRadius=0.12mm|HoleSize=0mm|Usage=FLASHONLY|Rotation=270.000|XOffset=0mm|YOffset=0mm|HoleType=Round|Shape=RoundedRectangle|*
%AMROUNDEDRECTD73*
21,1,0.8000,1.2600,0,0,270.0*
21,1,0.5600,1.5000,0,0,270.0*
1,1,0.2400,-0.6300,-0.2800*
1,1,0.2400,-0.6300,0.2800*
1,1,0.2400,0.6300,0.2800*
1,1,0.2400,0.6300,-0.2800*
%
%ADD73ROUNDEDRECTD73*%
%ADD74R,1.8000X1.3000*%
G04:AMPARAMS|DCode=75|XSize=0.8mm|YSize=1.5mm|CornerRadius=0.12mm|HoleSize=0mm|Usage=FLASHONLY|Rotation=0.000|XOffset=0mm|YOffset=0mm|HoleType=Round|Shape=RoundedRectangle|*
%AMROUNDEDRECTD75*
21,1,0.8000,1.2600,0,0,0.0*
21,1,0.5600,1.5000,0,0,0.0*
1,1,0.2400,0.2800,-0.6300*
1,1,0.2400,-0.2800,-0.6300*
1,1,0.2400,-0.2800,0.6300*
1,1,0.2400,0.2800,0.6300*
%
%ADD75ROUNDEDRECTD75*%
G04:AMPARAMS|DCode=76|XSize=2.1mm|YSize=2.7mm|CornerRadius=0.25mm|HoleSize=0mm|Usage=FLASHONLY|Rotation=180.000|XOffset=0mm|YOffset=0mm|HoleType=Round|Shape=RoundedRectangle|*
%AMROUNDEDRECTD76*
21,1,2.1000,2.2000,0,0,180.0*
21,1,1.6000,2.7000,0,0,180.0*
1,1,0.5000,-0.8000,1.1000*
1,1,0.5000,0.8000,1.1000*
1,1,0.5000,0.8000,-1.1000*
1,1,0.5000,-0.8000,-1.1000*
%
%ADD76ROUNDEDRECTD76*%
%ADD77R,1.3000X1.8000*%
%ADD78R,1.9000X2.1000*%
%ADD79R,0.8000X1.1000*%
%ADD80R,0.7000X1.5000*%
%ADD81O,0.7000X1.5000*%
%ADD82R,3.4000X2.5100*%
%ADD83O,0.7000X1.2000*%
%ADD84O,1.1000X0.5500*%
%ADD85R,1.1000X0.5500*%
%ADD86O,1.5000X0.4000*%
%ADD87O,0.4000X1.5000*%
%ADD88R,4.6000X2.4000*%
%ADD89R,0.8000X1.4000*%
G04:AMPARAMS|DCode=90|XSize=0.7mm|YSize=1.1mm|CornerRadius=0.155mm|HoleSize=0mm|Usage=FLASHONLY|Rotation=270.000|XOffset=0mm|YOffset=0mm|HoleType=Round|Shape=RoundedRectangle|*
%AMROUNDEDRECTD90*
21,1,0.7000,0.7900,0,0,270.0*
21,1,0.3900,1.1000,0,0,270.0*
1,1,0.3100,-0.3950,-0.1950*
1,1,0.3100,-0.3950,0.1950*
1,1,0.3100,0.3950,0.1950*
1,1,0.3100,0.3950,-0.1950*
%
%ADD90ROUNDEDRECTD90*%
%ADD91R,4.6000X2.1000*%
%ADD92R,0.7000X0.4000*%
%ADD93R,0.4000X0.7000*%
%ADD94R,1.1000X0.8000*%
%ADD95R,2.1000X0.9000*%
%ADD96R,1.9000X1.7000*%
%ADD97R,3.5000X1.8000*%
%ADD98R,3.1000X1.8000*%
%ADD99R,2.6000X1.8000*%
%ADD100R,3.7000X1.8000*%
%ADD101R,2.3000X1.8000*%
G04:AMPARAMS|DCode=102|XSize=1.5mm|YSize=1.3mm|CornerRadius=0.17mm|HoleSize=0mm|Usage=FLASHONLY|Rotation=90.000|XOffset=0mm|YOffset=0mm|HoleType=Round|Shape=RoundedRectangle|*
%AMROUNDEDRECTD102*
21,1,1.5000,0.9600,0,0,90.0*
21,1,1.1600,1.3000,0,0,90.0*
1,1,0.3400,0.4800,0.5800*
1,1,0.3400,0.4800,-0.5800*
1,1,0.3400,-0.4800,-0.5800*
1,1,0.3400,-0.4800,0.5800*
%
%ADD102ROUNDEDRECTD102*%
%ADD103R,1.3000X0.8000*%
D23*
X49397Y396500D02*
D03*
Y440500D02*
D03*
D64*
X50000Y50000D02*
D03*
Y520000D02*
D03*
X900000D02*
D03*
Y50000D02*
D03*
D65*
X784750Y534000D02*
D03*
X829000D02*
D03*
X309750D02*
D03*
X354000D02*
D03*
X184500D02*
D03*
X228750D02*
D03*
X732750Y413000D02*
D03*
X777750D02*
D03*
Y342500D02*
D03*
X732750D02*
D03*
X810750Y374000D02*
D03*
X855750D02*
D03*
Y303500D02*
D03*
X810750D02*
D03*
X888750Y413000D02*
D03*
X933750D02*
D03*
Y342500D02*
D03*
X888750D02*
D03*
X732750Y274000D02*
D03*
X777750D02*
D03*
Y203500D02*
D03*
X732750D02*
D03*
X810750Y274000D02*
D03*
X855750D02*
D03*
Y203500D02*
D03*
X810750D02*
D03*
X888750Y274000D02*
D03*
X933750D02*
D03*
Y203500D02*
D03*
X888750D02*
D03*
X810750Y174000D02*
D03*
X855750D02*
D03*
Y103500D02*
D03*
X810750D02*
D03*
D66*
X769750Y506750D02*
D03*
X844000D02*
D03*
X294750D02*
D03*
X369000D02*
D03*
X169500D02*
D03*
X243750D02*
D03*
D67*
X266897Y395750D02*
D03*
X341397D02*
D03*
D68*
X683400Y38750D02*
D03*
Y538500D02*
D03*
X123500D02*
D03*
Y38750D02*
D03*
D69*
X162200Y38650D02*
D03*
X187600D02*
D03*
X213000D02*
D03*
X238400D02*
D03*
X263800D02*
D03*
X289200D02*
D03*
X314600D02*
D03*
X340000D02*
D03*
X365400D02*
D03*
X390800D02*
D03*
X416200D02*
D03*
X441600D02*
D03*
X467000D02*
D03*
X492400D02*
D03*
X517800D02*
D03*
X543200D02*
D03*
X568600D02*
D03*
X594000D02*
D03*
X619400D02*
D03*
X644800D02*
D03*
D70*
X16250Y302250D02*
D03*
Y322250D02*
D03*
D71*
X443250Y451253D02*
D03*
X463250D02*
D03*
X483250D02*
D03*
X503250D02*
D03*
X523250D02*
D03*
X543250D02*
D03*
X563250D02*
D03*
X583250D02*
D03*
X603250D02*
D03*
X623250D02*
D03*
D72*
X525000Y314250D02*
D03*
Y294250D02*
D03*
Y274250D02*
D03*
Y254250D02*
D03*
Y234250D02*
D03*
Y214250D02*
D03*
Y194250D02*
D03*
Y174250D02*
D03*
Y154250D02*
D03*
Y134250D02*
D03*
D73*
X19500Y418000D02*
D03*
Y434000D02*
D03*
X43000Y475000D02*
D03*
Y459000D02*
D03*
X204250Y204750D02*
D03*
Y188750D02*
D03*
X494750Y168750D02*
D03*
Y184750D02*
D03*
X413250Y162250D02*
D03*
Y178250D02*
D03*
Y248250D02*
D03*
Y264250D02*
D03*
X484250Y248250D02*
D03*
Y264250D02*
D03*
X413250Y215500D02*
D03*
Y199500D02*
D03*
X252250Y110500D02*
D03*
Y94500D02*
D03*
X413250Y135500D02*
D03*
Y119500D02*
D03*
D74*
X165000Y419250D02*
D03*
Y445250D02*
D03*
X205750Y169750D02*
D03*
Y143750D02*
D03*
D75*
X176000Y386750D02*
D03*
X160000D02*
D03*
X136500Y495000D02*
D03*
X120500D02*
D03*
X687250Y205250D02*
D03*
X671250D02*
D03*
X272250Y74500D02*
D03*
X288250D02*
D03*
X469750Y135750D02*
D03*
X453750D02*
D03*
X239750Y188500D02*
D03*
X255750D02*
D03*
X239750Y212000D02*
D03*
X255750D02*
D03*
X393250Y235500D02*
D03*
X377250D02*
D03*
X393250Y74500D02*
D03*
X377250D02*
D03*
D76*
X725000Y74250D02*
D03*
X773000D02*
D03*
D77*
X673750Y180250D02*
D03*
X699750D02*
D03*
X277250Y237000D02*
D03*
X251250D02*
D03*
D78*
X719000Y149250D02*
D03*
X677000D02*
D03*
D79*
X430000Y378250D02*
D03*
X439500Y402250D02*
D03*
X420500D02*
D03*
D80*
X102550Y471500D02*
D03*
X89850D02*
D03*
X77150D02*
D03*
X64450D02*
D03*
X64450Y412500D02*
D03*
X77150D02*
D03*
X89850D02*
D03*
D81*
X102550D02*
D03*
D82*
X83500Y442000D02*
D03*
D83*
X121750Y473000D02*
D03*
X140750D02*
D03*
X121750Y447000D02*
D03*
X131250D02*
D03*
X140750D02*
D03*
D84*
X699500Y103250D02*
D03*
D85*
Y112750D02*
D03*
Y122250D02*
D03*
X723500D02*
D03*
Y112750D02*
D03*
Y103250D02*
D03*
D86*
X389750Y192500D02*
D03*
Y187500D02*
D03*
Y182500D02*
D03*
Y177500D02*
D03*
Y172500D02*
D03*
Y167500D02*
D03*
Y162500D02*
D03*
Y157500D02*
D03*
Y152500D02*
D03*
Y147500D02*
D03*
Y142500D02*
D03*
Y137500D02*
D03*
Y132500D02*
D03*
Y127500D02*
D03*
Y122500D02*
D03*
Y117500D02*
D03*
X275750D02*
D03*
Y122500D02*
D03*
Y127500D02*
D03*
Y132500D02*
D03*
Y137500D02*
D03*
Y142500D02*
D03*
Y147500D02*
D03*
Y152500D02*
D03*
Y157500D02*
D03*
Y162500D02*
D03*
Y167500D02*
D03*
Y172500D02*
D03*
Y177500D02*
D03*
Y182500D02*
D03*
Y187500D02*
D03*
Y192500D02*
D03*
D87*
X370250Y98000D02*
D03*
X365250D02*
D03*
X360250D02*
D03*
X355250D02*
D03*
X350250D02*
D03*
X345250D02*
D03*
X340250D02*
D03*
X335250D02*
D03*
X330250D02*
D03*
X325250D02*
D03*
X320250D02*
D03*
X315250D02*
D03*
X310250D02*
D03*
X305250D02*
D03*
X300250D02*
D03*
X295250D02*
D03*
Y212000D02*
D03*
X300250D02*
D03*
X305250D02*
D03*
X310250D02*
D03*
X315250D02*
D03*
X320250D02*
D03*
X325250D02*
D03*
X330250D02*
D03*
X335250D02*
D03*
X340250D02*
D03*
X345250D02*
D03*
X350250D02*
D03*
X355250D02*
D03*
X360250D02*
D03*
X365250D02*
D03*
X370250D02*
D03*
D88*
X219897Y395750D02*
D03*
X383897D02*
D03*
D89*
X137500Y419000D02*
D03*
X120500D02*
D03*
D90*
X278250Y274000D02*
D03*
Y258000D02*
D03*
X202250Y236750D02*
D03*
Y220750D02*
D03*
Y109250D02*
D03*
Y125250D02*
D03*
X411250Y87500D02*
D03*
Y103500D02*
D03*
X250250Y274000D02*
D03*
Y258000D02*
D03*
X434750Y120000D02*
D03*
Y136000D02*
D03*
D91*
X760500Y108750D02*
D03*
Y138750D02*
D03*
D92*
X23500Y469000D02*
D03*
Y477000D02*
D03*
Y448500D02*
D03*
Y456500D02*
D03*
X15500Y403500D02*
D03*
Y395500D02*
D03*
X31000D02*
D03*
Y403500D02*
D03*
X184750Y345000D02*
D03*
Y353000D02*
D03*
Y324500D02*
D03*
Y332500D02*
D03*
X175000Y477000D02*
D03*
Y469000D02*
D03*
X159500Y477000D02*
D03*
Y469000D02*
D03*
X105750Y72000D02*
D03*
Y80000D02*
D03*
X90250Y72000D02*
D03*
Y80000D02*
D03*
X152250Y72000D02*
D03*
Y80000D02*
D03*
X136750Y72000D02*
D03*
Y80000D02*
D03*
X121250Y72000D02*
D03*
Y80000D02*
D03*
X584000Y69250D02*
D03*
Y61250D02*
D03*
X599500Y69250D02*
D03*
Y61250D02*
D03*
X658500Y78250D02*
D03*
Y86250D02*
D03*
D93*
X98000Y393000D02*
D03*
X90000D02*
D03*
X147750Y314000D02*
D03*
X139750D02*
D03*
X170750D02*
D03*
X162750D02*
D03*
X724500Y46750D02*
D03*
X716500D02*
D03*
X745000D02*
D03*
X737000D02*
D03*
X783000D02*
D03*
X791000D02*
D03*
X683500Y86250D02*
D03*
X675500D02*
D03*
X762500Y46750D02*
D03*
X770500D02*
D03*
X704000Y86250D02*
D03*
X696000D02*
D03*
X439250Y161750D02*
D03*
X431250D02*
D03*
X383250Y255000D02*
D03*
X375250D02*
D03*
X601000Y84750D02*
D03*
X593000D02*
D03*
D94*
X167250Y287500D02*
D03*
X143250Y297000D02*
D03*
Y278000D02*
D03*
X143250Y340500D02*
D03*
X167250Y331000D02*
D03*
Y350000D02*
D03*
X744000Y20250D02*
D03*
X720000Y29750D02*
D03*
Y10750D02*
D03*
X763500Y20250D02*
D03*
X787500Y10750D02*
D03*
Y29750D02*
D03*
X542500Y73750D02*
D03*
X566500Y64250D02*
D03*
Y83250D02*
D03*
X617000Y73750D02*
D03*
X641000Y64250D02*
D03*
Y83250D02*
D03*
D95*
X177750Y232500D02*
D03*
Y221500D02*
D03*
Y210500D02*
D03*
Y199500D02*
D03*
Y188500D02*
D03*
Y177500D02*
D03*
Y166500D02*
D03*
Y155500D02*
D03*
D96*
X173750Y134600D02*
D03*
D97*
X160750Y99500D02*
D03*
D98*
X150750Y255500D02*
D03*
D99*
X74750D02*
D03*
D100*
X65250Y99500D02*
D03*
D101*
X27250Y255500D02*
D03*
X17250Y106000D02*
D03*
D102*
X456250Y159250D02*
D03*
X472250D02*
D03*
Y181250D02*
D03*
X456250D02*
D03*
D103*
X461750Y264250D02*
D03*
Y209250D02*
D03*
X436750D02*
D03*
X435750Y264250D02*
D03*
M02*
