G04 Layer_Physical_Order=1*
G04 Layer_Color=4803071*
%FSLAX44Y44*%
%MOMM*%
G71*
G01*
G75*
%ADD10R,2.5000X3.0000*%
%ADD11R,3.0000X0.5000*%
%ADD12C,0.2000*%
%ADD13C,0.5000*%
%ADD14C,0.3000*%
%ADD15C,1.0000*%
%ADD16C,0.4000*%
%ADD17C,7.0000*%
%ADD18C,2.0000*%
%ADD19C,3.0000*%
%ADD20C,5.0000*%
%ADD21O,2.0000X3.0000*%
%ADD22O,2.0000X1.3000*%
%ADD23C,0.9000*%
%ADD24O,1.5000X2.0000*%
%ADD25O,2.0000X1.5000*%
%ADD26C,0.7000*%
G36*
X674209Y565000D02*
X674507Y563500D01*
X671332Y562185D01*
X667775Y560005D01*
X664604Y557296D01*
X661895Y554124D01*
X659715Y550568D01*
X658119Y546714D01*
X657145Y542658D01*
X656818Y538500D01*
X657145Y534342D01*
X658119Y530286D01*
X659715Y526432D01*
X661895Y522876D01*
X664604Y519704D01*
X667775Y516995D01*
X671332Y514815D01*
X675186Y513219D01*
X679242Y512245D01*
X683400Y511918D01*
X687558Y512245D01*
X691614Y513219D01*
X695468Y514815D01*
X699025Y516995D01*
X702196Y519704D01*
X704905Y522876D01*
X707085Y526432D01*
X708681Y530286D01*
X709655Y534342D01*
X709982Y538500D01*
X709655Y542658D01*
X708681Y546714D01*
X707085Y550568D01*
X704905Y554124D01*
X702196Y557296D01*
X699025Y560005D01*
X695468Y562185D01*
X692293Y563500D01*
X692591Y565000D01*
X900000Y565000D01*
X900000Y565000D01*
X900000Y565000D01*
X902949Y565000D01*
X908798Y564230D01*
X914496Y562703D01*
X919946Y560446D01*
X925054Y557496D01*
X929734Y553905D01*
X933905Y549734D01*
X937496Y545054D01*
X940446Y539946D01*
X942703Y534496D01*
X944230Y528798D01*
X945000Y522949D01*
X945000Y520000D01*
Y419658D01*
X943500Y419185D01*
X941952Y421202D01*
X939550Y423045D01*
X936752Y424204D01*
X933750Y424599D01*
X930748Y424204D01*
X927950Y423045D01*
X925548Y421202D01*
X923705Y418800D01*
X922546Y416002D01*
X922151Y413000D01*
X922546Y409998D01*
X923705Y407200D01*
X925548Y404798D01*
X927194Y403535D01*
Y389049D01*
X912310D01*
X911605Y390105D01*
X909951Y391210D01*
X908000Y391598D01*
X906049Y391210D01*
X904395Y390105D01*
X903290Y388451D01*
X902902Y386500D01*
X903290Y384549D01*
X904395Y382895D01*
X906049Y381790D01*
X908000Y381402D01*
X909951Y381790D01*
X911605Y382895D01*
X912310Y383951D01*
X927194D01*
Y351965D01*
X925548Y350702D01*
X923705Y348300D01*
X922546Y345502D01*
X922151Y342500D01*
X922546Y339498D01*
X923705Y336700D01*
X925548Y334298D01*
X927194Y333035D01*
Y283465D01*
X925548Y282202D01*
X923705Y279800D01*
X922546Y277002D01*
X922151Y274000D01*
X922546Y270998D01*
X923705Y268200D01*
X925548Y265798D01*
X927194Y264535D01*
Y212965D01*
X925548Y211702D01*
X923705Y209300D01*
X922546Y206502D01*
X922151Y203500D01*
X922546Y200498D01*
X923705Y197700D01*
X925548Y195298D01*
X927950Y193455D01*
X930748Y192296D01*
X933750Y191901D01*
X936752Y192296D01*
X939550Y193455D01*
X941952Y195298D01*
X943500Y197316D01*
X945000Y196842D01*
X945000Y50000D01*
X945000Y50000D01*
X945000Y47050D01*
X944230Y41202D01*
X942703Y35504D01*
X940446Y30054D01*
X937496Y24946D01*
X933905Y20266D01*
X929734Y16095D01*
X925054Y12504D01*
X919946Y9554D01*
X914496Y7297D01*
X908798Y5770D01*
X902950Y5000D01*
X900000D01*
X708575D01*
X708120Y6500D01*
X708668Y6866D01*
X710621Y8819D01*
X711736Y9041D01*
X713389Y10146D01*
X714494Y11800D01*
X714883Y13751D01*
X714494Y15702D01*
X713389Y17356D01*
X711736Y18461D01*
X709785Y18849D01*
X707834Y18461D01*
X706180Y17356D01*
X705075Y15702D01*
X704853Y14587D01*
X704095Y13828D01*
X696320D01*
X695897Y15328D01*
X699025Y17245D01*
X702196Y19954D01*
X704905Y23126D01*
X707085Y26682D01*
X708681Y30536D01*
X709655Y34592D01*
X709982Y38750D01*
X709655Y42908D01*
X708681Y46964D01*
X707085Y50818D01*
X704905Y54374D01*
X702196Y57546D01*
X699025Y60255D01*
X695468Y62435D01*
X691614Y64031D01*
X687558Y65005D01*
X683400Y65332D01*
X679242Y65005D01*
X675186Y64031D01*
X671332Y62435D01*
X667775Y60255D01*
X664604Y57546D01*
X661895Y54374D01*
X659715Y50818D01*
X658119Y46964D01*
X657704Y45234D01*
X656180Y45314D01*
X656004Y46652D01*
X654845Y49450D01*
X653002Y51852D01*
X650600Y53695D01*
X647802Y54854D01*
X644800Y55249D01*
X641798Y54854D01*
X639000Y53695D01*
X636598Y51852D01*
X634755Y49450D01*
X633596Y46652D01*
X633201Y43650D01*
Y33650D01*
X633596Y30648D01*
X634755Y27850D01*
X636598Y25448D01*
X639000Y23605D01*
X641798Y22446D01*
X644800Y22051D01*
X647802Y22446D01*
X650600Y23605D01*
X653002Y25448D01*
X654845Y27850D01*
X656004Y30648D01*
X656197Y32115D01*
X657721Y32195D01*
X658119Y30536D01*
X659715Y26682D01*
X661198Y24262D01*
X660091Y23198D01*
X658951Y23960D01*
X657000Y24348D01*
X655049Y23960D01*
X653395Y22855D01*
X652290Y21201D01*
X651902Y19250D01*
X652290Y17299D01*
X653395Y15645D01*
X653869Y15328D01*
X653414Y13828D01*
X136420D01*
X135997Y15328D01*
X139124Y17245D01*
X142296Y19954D01*
X145005Y23126D01*
X147185Y26682D01*
X148781Y30536D01*
X149244Y32464D01*
X150767Y32384D01*
X150996Y30648D01*
X152155Y27850D01*
X153998Y25448D01*
X156400Y23605D01*
X159198Y22446D01*
X162200Y22051D01*
X165202Y22446D01*
X168000Y23605D01*
X170402Y25448D01*
X172245Y27850D01*
X173404Y30648D01*
X173799Y33650D01*
Y43650D01*
X173404Y46652D01*
X172639Y48500D01*
X173641Y50000D01*
X176159Y50000D01*
X177161Y48500D01*
X176396Y46652D01*
X176001Y43650D01*
Y33650D01*
X176396Y30648D01*
X177555Y27850D01*
X179398Y25448D01*
X181800Y23605D01*
X184598Y22446D01*
X187600Y22051D01*
X190602Y22446D01*
X193400Y23605D01*
X195802Y25448D01*
X197645Y27850D01*
X198804Y30648D01*
X199199Y33650D01*
Y43650D01*
X198804Y46652D01*
X198039Y48500D01*
X199041Y50000D01*
X201559D01*
X202561Y48500D01*
X201796Y46652D01*
X201401Y43650D01*
Y33650D01*
X201796Y30648D01*
X202955Y27850D01*
X204798Y25448D01*
X207200Y23605D01*
X209998Y22446D01*
X213000Y22051D01*
X216002Y22446D01*
X218800Y23605D01*
X221202Y25448D01*
X223045Y27850D01*
X224204Y30648D01*
X224599Y33650D01*
Y43650D01*
X224204Y46652D01*
X223439Y48500D01*
X224441Y50000D01*
X226959D01*
X227961Y48500D01*
X227196Y46652D01*
X226801Y43650D01*
Y33650D01*
X227196Y30648D01*
X228355Y27850D01*
X230198Y25448D01*
X232600Y23605D01*
X235398Y22446D01*
X238400Y22051D01*
X241402Y22446D01*
X244200Y23605D01*
X246602Y25448D01*
X248445Y27850D01*
X249604Y30648D01*
X249999Y33650D01*
Y43650D01*
X249604Y46652D01*
X248445Y49450D01*
X246602Y51852D01*
X244200Y53695D01*
X241402Y54854D01*
X238400Y55249D01*
X235398Y54854D01*
X232600Y53695D01*
X231500Y52851D01*
X230000Y53591D01*
Y82672D01*
X241000D01*
X241000Y82672D01*
X242561Y82982D01*
X243884Y83866D01*
X248189Y88172D01*
X322278D01*
X322817Y86672D01*
X300298Y64152D01*
X299745Y63326D01*
X299551Y62350D01*
Y51515D01*
X298051Y51006D01*
X297402Y51852D01*
X295000Y53695D01*
X292202Y54854D01*
X289200Y55249D01*
X286198Y54854D01*
X283400Y53695D01*
X280998Y51852D01*
X279155Y49450D01*
X277996Y46652D01*
X277601Y43650D01*
Y33650D01*
X277996Y30648D01*
X279155Y27850D01*
X280998Y25448D01*
X283400Y23605D01*
X286198Y22446D01*
X289200Y22051D01*
X292202Y22446D01*
X295000Y23605D01*
X297402Y25448D01*
X298464Y26833D01*
X300266Y26717D01*
X300298Y26670D01*
X310770Y16198D01*
X311597Y15645D01*
X312572Y15451D01*
X370150D01*
X371125Y15645D01*
X371952Y16198D01*
X381289Y25534D01*
X382598Y25448D01*
X385000Y23605D01*
X387798Y22446D01*
X390800Y22051D01*
X393802Y22446D01*
X396600Y23605D01*
X399002Y25448D01*
X400845Y27850D01*
X402004Y30648D01*
X402399Y33650D01*
Y43650D01*
X402004Y46652D01*
X401673Y47451D01*
X402945Y48300D01*
X404949Y46296D01*
X404601Y43650D01*
Y33650D01*
X404996Y30648D01*
X406155Y27850D01*
X407998Y25448D01*
X410400Y23605D01*
X413198Y22446D01*
X416200Y22051D01*
X419202Y22446D01*
X422000Y23605D01*
X424402Y25448D01*
X426245Y27850D01*
X427404Y30648D01*
X427799Y33650D01*
Y43650D01*
X427404Y46652D01*
X426245Y49450D01*
X424402Y51852D01*
X422000Y53695D01*
X419202Y54854D01*
X416200Y55249D01*
X413198Y54854D01*
X410400Y53695D01*
X407998Y51852D01*
X406689Y51766D01*
X394152Y64302D01*
X393326Y64855D01*
X392350Y65049D01*
X369810D01*
X369105Y66105D01*
X367451Y67210D01*
X365500Y67598D01*
X363549Y67210D01*
X361895Y66105D01*
X360790Y64451D01*
X360402Y62500D01*
X360790Y60549D01*
X361895Y58895D01*
X363549Y57790D01*
X365500Y57402D01*
X367451Y57790D01*
X369105Y58895D01*
X369810Y59951D01*
X391294D01*
X395450Y55795D01*
X394601Y54523D01*
X393802Y54854D01*
X390800Y55249D01*
X387798Y54854D01*
X385000Y53695D01*
X382598Y51852D01*
X380755Y49450D01*
X379596Y46652D01*
X379201Y43650D01*
Y33650D01*
X379549Y31004D01*
X377545Y29000D01*
X376273Y29849D01*
X376604Y30648D01*
X376999Y33650D01*
Y43650D01*
X376604Y46652D01*
X375445Y49450D01*
X373602Y51852D01*
X371200Y53695D01*
X368402Y54854D01*
X365400Y55249D01*
X362398Y54854D01*
X359600Y53695D01*
X357198Y51852D01*
X355889Y51766D01*
X344073Y63581D01*
X344183Y65197D01*
X344855Y65645D01*
X345960Y67299D01*
X346348Y69250D01*
X345960Y71201D01*
X344855Y72855D01*
X343201Y73960D01*
X341250Y74348D01*
X339299Y73960D01*
X337645Y72855D01*
X336540Y71201D01*
X336152Y69250D01*
X336540Y67299D01*
X337645Y65645D01*
X338701Y64940D01*
Y62800D01*
X338895Y61825D01*
X339448Y60998D01*
X344650Y55795D01*
X343801Y54523D01*
X343002Y54854D01*
X340000Y55249D01*
X336998Y54854D01*
X334200Y53695D01*
X331798Y51852D01*
X329955Y49450D01*
X328796Y46652D01*
X328401Y43650D01*
Y33650D01*
X328796Y30648D01*
X329955Y27850D01*
X331798Y25448D01*
X334200Y23605D01*
X336998Y22446D01*
X340000Y22051D01*
X343002Y22446D01*
X345800Y23605D01*
X348202Y25448D01*
X350045Y27850D01*
X351204Y30648D01*
X351599Y33650D01*
Y43650D01*
X351204Y46652D01*
X350873Y47451D01*
X352145Y48300D01*
X354149Y46296D01*
X353801Y43650D01*
Y33650D01*
X354196Y30648D01*
X355355Y27850D01*
X357198Y25448D01*
X359600Y23605D01*
X362398Y22446D01*
X365400Y22051D01*
X368402Y22446D01*
X368672Y22558D01*
X369603Y21320D01*
X368987Y20549D01*
X314962D01*
X314941Y20583D01*
X315704Y22196D01*
X317602Y22446D01*
X320400Y23605D01*
X322802Y25448D01*
X324645Y27850D01*
X325804Y30648D01*
X326199Y33650D01*
Y43650D01*
X325804Y46652D01*
X324645Y49450D01*
X322802Y51852D01*
X320400Y53695D01*
X317602Y54854D01*
X314600Y55249D01*
X311598Y54854D01*
X308800Y53695D01*
X306398Y51852D01*
X306069Y51424D01*
X304649Y51906D01*
Y61294D01*
X326056Y82701D01*
X328356D01*
X329395Y81145D01*
X331049Y80040D01*
X333000Y79652D01*
X334951Y80040D01*
X336605Y81145D01*
X337710Y82799D01*
X338098Y84750D01*
X337716Y86672D01*
X337662Y86943D01*
X338509Y88172D01*
X383204D01*
X390260Y81116D01*
X390260Y81116D01*
X391583Y80232D01*
X393143Y79922D01*
X445361D01*
X468751Y56532D01*
X468050Y55111D01*
X467000Y55249D01*
X463998Y54854D01*
X461200Y53695D01*
X458798Y51852D01*
X456955Y49450D01*
X455796Y46652D01*
X455401Y43650D01*
Y33650D01*
X455796Y30648D01*
X456955Y27850D01*
X458798Y25448D01*
X461200Y23605D01*
X463998Y22446D01*
X467000Y22051D01*
X470002Y22446D01*
X472800Y23605D01*
X475202Y25448D01*
X477045Y27850D01*
X478204Y30648D01*
X478599Y33650D01*
Y43650D01*
X478461Y44700D01*
X479882Y45401D01*
X480897Y44385D01*
X480801Y43650D01*
Y33650D01*
X481196Y30648D01*
X482355Y27850D01*
X484198Y25448D01*
X486600Y23605D01*
X489398Y22446D01*
X492400Y22051D01*
X495402Y22446D01*
X498200Y23605D01*
X500602Y25448D01*
X502445Y27850D01*
X503604Y30648D01*
X503999Y33650D01*
Y43650D01*
X503604Y46652D01*
X502445Y49450D01*
X500602Y51852D01*
X498200Y53695D01*
X495402Y54854D01*
X492400Y55249D01*
X489398Y54854D01*
X486600Y53695D01*
X484632Y52185D01*
X449934Y86884D01*
X448611Y87768D01*
X447050Y88078D01*
X447050Y88078D01*
X401759D01*
X400912Y89307D01*
X400966Y89578D01*
X401348Y91500D01*
X400960Y93451D01*
X399855Y95105D01*
X398201Y96210D01*
X396250Y96598D01*
X394299Y96210D01*
X393543Y95704D01*
X391432Y97815D01*
X392006Y99201D01*
X565444D01*
X577400Y87246D01*
X577152Y86000D01*
X577540Y84049D01*
X578645Y82395D01*
X580299Y81290D01*
X582250Y80902D01*
X584201Y81290D01*
X585855Y82395D01*
X586960Y84049D01*
X587348Y86000D01*
X586960Y87951D01*
X585855Y89605D01*
X585337Y89951D01*
X585792Y91451D01*
X780944D01*
X788451Y83944D01*
Y70310D01*
X787395Y69605D01*
X786290Y67951D01*
X785902Y66000D01*
X786290Y64049D01*
X787395Y62395D01*
X789049Y61290D01*
X791000Y60902D01*
X792951Y61290D01*
X794605Y62395D01*
X795710Y64049D01*
X796098Y66000D01*
X795710Y67951D01*
X794605Y69605D01*
X793549Y70310D01*
Y85000D01*
X793355Y85976D01*
X792802Y86802D01*
X783802Y95802D01*
X782975Y96355D01*
X782000Y96549D01*
X580256D01*
X569752Y107052D01*
X568925Y107605D01*
X567950Y107799D01*
X397799D01*
X397091Y109122D01*
X397210Y109299D01*
X397588Y111201D01*
X458500D01*
X459476Y111395D01*
X460302Y111948D01*
X516140Y167786D01*
X517961Y166388D01*
X520150Y165482D01*
X522500Y165172D01*
X527500D01*
X529850Y165482D01*
X532039Y166388D01*
X533919Y167831D01*
X535362Y169711D01*
X536268Y171901D01*
X536578Y174250D01*
X536268Y176600D01*
X535362Y178789D01*
X533919Y180669D01*
X532039Y182111D01*
X529850Y183018D01*
X527500Y183328D01*
X522500D01*
X520150Y183018D01*
X519030Y182554D01*
X518181Y183826D01*
X519928Y185574D01*
X520150Y185482D01*
X522500Y185172D01*
X527500D01*
X529850Y185482D01*
X532039Y186389D01*
X533919Y187831D01*
X535362Y189711D01*
X536268Y191901D01*
X536578Y194250D01*
X536268Y196600D01*
X535362Y198789D01*
X533919Y200669D01*
X532039Y202111D01*
X529850Y203018D01*
X527500Y203328D01*
X522500D01*
X522290Y203300D01*
X521508Y204710D01*
X521949Y205245D01*
X522500Y205172D01*
X527500D01*
X529850Y205482D01*
X532039Y206388D01*
X533919Y207831D01*
X535362Y209711D01*
X536268Y211901D01*
X536578Y214250D01*
X536268Y216600D01*
X535362Y218789D01*
X533919Y220669D01*
X533716Y220825D01*
X533587Y221596D01*
X533714Y222717D01*
X539302Y228305D01*
X539855Y229132D01*
X540049Y230108D01*
Y278392D01*
X539855Y279368D01*
X539302Y280194D01*
X533448Y286049D01*
X533546Y287545D01*
X533919Y287831D01*
X535362Y289711D01*
X536268Y291901D01*
X536578Y294250D01*
X536268Y296600D01*
X535362Y298789D01*
X533919Y300669D01*
X532039Y302111D01*
X529850Y303018D01*
X527500Y303328D01*
X522500D01*
X520150Y303018D01*
X519030Y302554D01*
X518181Y303826D01*
X519928Y305574D01*
X520150Y305482D01*
X522500Y305172D01*
X527500D01*
X529850Y305482D01*
X532039Y306388D01*
X533919Y307831D01*
X535362Y309711D01*
X536268Y311901D01*
X536578Y314250D01*
X536268Y316600D01*
X535362Y318789D01*
X533919Y320669D01*
X532039Y322111D01*
X529850Y323018D01*
X527500Y323328D01*
X522500D01*
X520150Y323018D01*
X517961Y322111D01*
X516081Y320669D01*
X514638Y318789D01*
X513732Y316600D01*
X513422Y314250D01*
X513732Y311901D01*
X514638Y309711D01*
X515602Y308456D01*
X510448Y303302D01*
X509895Y302475D01*
X509701Y301500D01*
Y264148D01*
X507198Y261644D01*
X506645Y260817D01*
X506451Y259842D01*
Y245847D01*
X503698Y243094D01*
X503145Y242267D01*
X502951Y241292D01*
Y232457D01*
X433044Y162549D01*
X388614D01*
X388040Y163935D01*
X392306Y168201D01*
X426300D01*
X427276Y168395D01*
X428103Y168948D01*
X486302Y227147D01*
X486855Y227974D01*
X487049Y228950D01*
Y328295D01*
X512606Y353851D01*
X690344D01*
X694701Y349495D01*
Y347015D01*
X694895Y346039D01*
X695448Y345212D01*
X699258Y341402D01*
X698790Y340701D01*
X698402Y338750D01*
X698790Y336799D01*
X699895Y335145D01*
X701549Y334040D01*
X703500Y333652D01*
X705451Y334040D01*
X707105Y335145D01*
X708210Y336799D01*
X708598Y338750D01*
X708210Y340701D01*
X707105Y342355D01*
X705578Y343375D01*
X705460Y343819D01*
X705488Y344982D01*
X706855Y345895D01*
X707960Y347549D01*
X708348Y349500D01*
X707960Y351451D01*
X706855Y353105D01*
X705873Y353761D01*
Y355489D01*
X706855Y356145D01*
X707960Y357799D01*
X708348Y359750D01*
X707960Y361701D01*
X707631Y362193D01*
X708796Y363149D01*
X713701Y358245D01*
Y285550D01*
X713895Y284575D01*
X714448Y283748D01*
X717701Y280494D01*
Y198322D01*
X717895Y197347D01*
X718448Y196520D01*
X725770Y189198D01*
X726597Y188645D01*
X727572Y188451D01*
X792694D01*
X800983Y180162D01*
X800705Y179800D01*
X799546Y177002D01*
X799151Y174000D01*
X799546Y170998D01*
X800705Y168200D01*
X802548Y165798D01*
X804194Y164535D01*
Y112965D01*
X802548Y111702D01*
X800705Y109300D01*
X799546Y106502D01*
X799151Y103500D01*
X799546Y100498D01*
X800705Y97700D01*
X802548Y95298D01*
X804950Y93455D01*
X807748Y92296D01*
X810750Y91901D01*
X813752Y92296D01*
X816550Y93455D01*
X818952Y95298D01*
X820795Y97700D01*
X821954Y100498D01*
X822349Y103500D01*
X821954Y106502D01*
X820795Y109300D01*
X818952Y111702D01*
X817306Y112965D01*
Y164535D01*
X818952Y165798D01*
X820795Y168200D01*
X821954Y170998D01*
X822349Y174000D01*
X821954Y177002D01*
X820795Y179800D01*
X818952Y182202D01*
X816550Y184045D01*
X813752Y185204D01*
X810750Y185599D01*
X807748Y185204D01*
X804950Y184045D01*
X804588Y183767D01*
X795552Y192802D01*
X794725Y193355D01*
X793750Y193549D01*
X786006D01*
X785524Y194969D01*
X785952Y195298D01*
X787795Y197700D01*
X788954Y200498D01*
X789349Y203500D01*
X788954Y206502D01*
X787795Y209300D01*
X785952Y211702D01*
X784306Y212965D01*
Y264535D01*
X785952Y265798D01*
X787795Y268200D01*
X788954Y270998D01*
X789349Y274000D01*
X788954Y277002D01*
X787795Y279800D01*
X785952Y282202D01*
X784306Y283465D01*
Y333035D01*
X785952Y334298D01*
X787795Y336700D01*
X788954Y339498D01*
X789349Y342500D01*
X788954Y345502D01*
X787795Y348300D01*
X785952Y350702D01*
X784306Y351965D01*
Y403535D01*
X785952Y404798D01*
X787795Y407200D01*
X788954Y409998D01*
X789349Y413000D01*
X788954Y416002D01*
X787795Y418800D01*
X785952Y421202D01*
X783550Y423045D01*
X780752Y424204D01*
X777750Y424599D01*
X774748Y424204D01*
X771950Y423045D01*
X769548Y421202D01*
X767705Y418800D01*
X766546Y416002D01*
X766151Y413000D01*
X766546Y409998D01*
X767705Y407200D01*
X769548Y404798D01*
X771194Y403535D01*
Y351965D01*
X769548Y350702D01*
X767705Y348300D01*
X766546Y345502D01*
X766151Y342500D01*
X766546Y339498D01*
X767705Y336700D01*
X769548Y334298D01*
X771194Y333035D01*
Y283465D01*
X769548Y282202D01*
X767705Y279800D01*
X766546Y277002D01*
X766151Y274000D01*
X766546Y270998D01*
X767705Y268200D01*
X769548Y265798D01*
X771194Y264535D01*
Y212965D01*
X769548Y211702D01*
X767705Y209300D01*
X766546Y206502D01*
X766151Y203500D01*
X766546Y200498D01*
X767705Y197700D01*
X769548Y195298D01*
X769977Y194969D01*
X769494Y193549D01*
X741006D01*
X740524Y194969D01*
X740952Y195298D01*
X742795Y197700D01*
X743954Y200498D01*
X744349Y203500D01*
X743954Y206502D01*
X742795Y209300D01*
X740952Y211702D01*
X738550Y213545D01*
X735752Y214704D01*
X734806Y214829D01*
Y262672D01*
X735752Y262796D01*
X738550Y263955D01*
X740952Y265798D01*
X742795Y268200D01*
X743954Y270998D01*
X744349Y274000D01*
X743954Y277002D01*
X742795Y279800D01*
X740952Y282202D01*
X738550Y284045D01*
X735752Y285204D01*
X732750Y285599D01*
X729748Y285204D01*
X726950Y284045D01*
X726588Y283767D01*
X722299Y288056D01*
Y334765D01*
X723799Y335274D01*
X724548Y334298D01*
X726950Y332455D01*
X729748Y331296D01*
X732750Y330901D01*
X735752Y331296D01*
X738550Y332455D01*
X740952Y334298D01*
X742795Y336700D01*
X743954Y339498D01*
X744349Y342500D01*
X743954Y345502D01*
X742795Y348300D01*
X740952Y350702D01*
X739306Y351965D01*
Y375250D01*
Y403535D01*
X740952Y404798D01*
X742795Y407200D01*
X743954Y409998D01*
X744349Y413000D01*
X743954Y416002D01*
X742795Y418800D01*
X740952Y421202D01*
X738550Y423045D01*
X735752Y424204D01*
X732750Y424599D01*
X729748Y424204D01*
X726950Y423045D01*
X724548Y421202D01*
X722705Y418800D01*
X721546Y416002D01*
X721151Y413000D01*
X721546Y409998D01*
X722705Y407200D01*
X724548Y404798D01*
X726194Y403535D01*
Y376549D01*
X504250D01*
X503274Y376355D01*
X502448Y375802D01*
X465198Y338552D01*
X464645Y337725D01*
X464451Y336750D01*
Y237306D01*
X442944Y215799D01*
X412635D01*
X411299Y217031D01*
Y282400D01*
X411105Y283375D01*
X410552Y284202D01*
X396002Y298752D01*
X395175Y299305D01*
X394200Y299499D01*
X290455D01*
X270000Y319954D01*
Y389458D01*
X270428Y389636D01*
X271890Y390758D01*
X273012Y392220D01*
X273717Y393923D01*
X273958Y395750D01*
X273717Y397577D01*
X273012Y399280D01*
X271890Y400742D01*
X270428Y401865D01*
X270000Y402042D01*
Y543951D01*
X296194D01*
X299983Y540162D01*
X299705Y539800D01*
X298546Y537002D01*
X298151Y534000D01*
X298546Y530998D01*
X299705Y528200D01*
X301548Y525798D01*
X303950Y523955D01*
X306748Y522796D01*
X309750Y522401D01*
X312752Y522796D01*
X315550Y523955D01*
X317952Y525798D01*
X319795Y528200D01*
X320954Y530998D01*
X321349Y534000D01*
X320954Y537002D01*
X319795Y539800D01*
X317952Y542202D01*
X315550Y544045D01*
X312752Y545204D01*
X309750Y545599D01*
X306748Y545204D01*
X303950Y544045D01*
X303588Y543767D01*
X299052Y548302D01*
X298225Y548855D01*
X297250Y549049D01*
X270000D01*
Y552672D01*
X605461D01*
X658922Y499211D01*
Y387896D01*
X658290Y386951D01*
X657902Y385000D01*
X658290Y383049D01*
X659395Y381395D01*
X661049Y380290D01*
X663000Y379902D01*
X664951Y380290D01*
X666605Y381395D01*
X667710Y383049D01*
X668098Y385000D01*
X667710Y386951D01*
X667078Y387896D01*
Y496922D01*
X712250D01*
X712250Y496922D01*
X713811Y497232D01*
X715134Y498116D01*
X760939Y543922D01*
X776456D01*
X776938Y542501D01*
X776548Y542202D01*
X774705Y539800D01*
X773546Y537002D01*
X773151Y534000D01*
X773546Y530998D01*
X774705Y528200D01*
X776548Y525798D01*
X778950Y523955D01*
X781748Y522796D01*
X784750Y522401D01*
X787752Y522796D01*
X790550Y523955D01*
X792952Y525798D01*
X794795Y528200D01*
X795954Y530998D01*
X796349Y534000D01*
X795954Y537002D01*
X794795Y539800D01*
X792952Y542202D01*
X792562Y542501D01*
X793044Y543922D01*
X813311D01*
X818509Y538723D01*
X817796Y537002D01*
X817401Y534000D01*
X817796Y530998D01*
X818955Y528200D01*
X820798Y525798D01*
X823200Y523955D01*
X825998Y522796D01*
X829000Y522401D01*
X832002Y522796D01*
X834800Y523955D01*
X837202Y525798D01*
X839045Y528200D01*
X840204Y530998D01*
X840599Y534000D01*
X840204Y537002D01*
X839045Y539800D01*
X837202Y542202D01*
X834800Y544045D01*
X832002Y545204D01*
X829000Y545599D01*
X825998Y545204D01*
X824277Y544491D01*
X817884Y550884D01*
X816561Y551768D01*
X815000Y552078D01*
X815000Y552078D01*
X759250D01*
X757689Y551768D01*
X756366Y550884D01*
X756366Y550884D01*
X710561Y505078D01*
X664589D01*
X610034Y559634D01*
X608711Y560518D01*
X607150Y560828D01*
X607150Y560828D01*
X270000D01*
Y565000D01*
X674209Y565000D01*
D02*
G37*
G36*
X268471Y403741D02*
X267343Y402752D01*
X266897Y402810D01*
X265070Y402570D01*
X263367Y401865D01*
X261905Y400742D01*
X260783Y399280D01*
X260078Y397577D01*
X259837Y395750D01*
X260078Y393923D01*
X260783Y392220D01*
X261905Y390758D01*
X263367Y389636D01*
X265070Y388930D01*
X266897Y388690D01*
X267343Y388748D01*
X268471Y387759D01*
Y323443D01*
X267085Y322869D01*
X211049Y378905D01*
Y531194D01*
X215908Y536053D01*
X217329Y535353D01*
X217151Y534000D01*
X217546Y530998D01*
X218705Y528200D01*
X220548Y525798D01*
X222950Y523955D01*
X225748Y522796D01*
X228750Y522401D01*
X231752Y522796D01*
X234550Y523955D01*
X236952Y525798D01*
X238795Y528200D01*
X239954Y530998D01*
X240349Y534000D01*
X239954Y537002D01*
X238795Y539800D01*
X236952Y542202D01*
X236523Y542531D01*
X237006Y543951D01*
X268471D01*
Y403741D01*
D02*
G37*
G36*
Y560828D02*
X268587Y560243D01*
X268919Y559747D01*
X269415Y559415D01*
X270000Y559299D01*
Y554201D01*
X269415Y554085D01*
X268919Y553753D01*
X268587Y553257D01*
X268471Y552672D01*
Y549049D01*
X222750D01*
X221775Y548855D01*
X220948Y548302D01*
X206698Y534052D01*
X206488Y533738D01*
X204978Y533398D01*
X204659Y533445D01*
X202302Y535802D01*
X201476Y536355D01*
X200500Y536549D01*
X195764D01*
X195704Y537002D01*
X194545Y539800D01*
X192702Y542202D01*
X190300Y544045D01*
X187502Y545204D01*
X184500Y545599D01*
X181498Y545204D01*
X178700Y544045D01*
X176298Y542202D01*
X174455Y539800D01*
X173296Y537002D01*
X172901Y534000D01*
X173296Y530998D01*
X174455Y528200D01*
X176298Y525798D01*
X178700Y523955D01*
X181498Y522796D01*
X184500Y522401D01*
X187502Y522796D01*
X190300Y523955D01*
X192702Y525798D01*
X194545Y528200D01*
X195704Y530998D01*
X195764Y531451D01*
X199444D01*
X202451Y528444D01*
Y449614D01*
X201065Y449039D01*
X154052Y496052D01*
X153225Y496605D01*
X152250Y496799D01*
X113541D01*
X102038Y508302D01*
X101211Y508855D01*
X100898Y508917D01*
X100105Y510105D01*
X98451Y511210D01*
X96500Y511598D01*
X94549Y511210D01*
X92895Y510105D01*
X91790Y508451D01*
X91402Y506500D01*
X91790Y504549D01*
X92895Y502895D01*
X94549Y501790D01*
X96500Y501402D01*
X98451Y501790D01*
X100105Y502895D01*
X100224Y502907D01*
X106194Y496937D01*
X105758Y495502D01*
X105549Y495460D01*
X103895Y494355D01*
X102790Y492701D01*
X102402Y490750D01*
X102790Y488799D01*
X103895Y487145D01*
X105549Y486040D01*
X107500Y485652D01*
X109451Y486040D01*
X111105Y487145D01*
X111810Y488201D01*
X149444D01*
X186664Y450981D01*
X186171Y449353D01*
X185558Y449232D01*
X184177Y448309D01*
X116750D01*
X115580Y448076D01*
X114587Y447413D01*
X114587Y447413D01*
X112644Y445470D01*
X112000Y445598D01*
X110049Y445210D01*
X108395Y444105D01*
X107290Y442451D01*
X106902Y440500D01*
X107290Y438549D01*
X108395Y436895D01*
X110049Y435790D01*
X112000Y435402D01*
X113951Y435790D01*
X115605Y436895D01*
X116710Y438549D01*
X117098Y440500D01*
X116970Y441144D01*
X118017Y442191D01*
X146318D01*
X146773Y440691D01*
X145895Y440105D01*
X144790Y438451D01*
X144402Y436500D01*
X144790Y434549D01*
X145895Y432895D01*
X146441Y432530D01*
Y416000D01*
X146441Y416000D01*
X146674Y414829D01*
X147337Y413837D01*
X209452Y351723D01*
Y336986D01*
X208906Y336621D01*
X207801Y334967D01*
X207412Y333016D01*
X207801Y331065D01*
X208906Y329412D01*
X210560Y328306D01*
X212510Y327918D01*
X214461Y328306D01*
X216115Y329412D01*
X217220Y331065D01*
X217608Y333016D01*
X217220Y334967D01*
X216115Y336621D01*
X215569Y336986D01*
Y350366D01*
X216955Y350940D01*
X269067Y298828D01*
X269146Y298492D01*
X268918Y297017D01*
X268587Y296521D01*
X268471Y295935D01*
Y281529D01*
X256214D01*
X255629Y281413D01*
X255133Y281082D01*
X253657Y280854D01*
X253321Y280933D01*
X199549Y334705D01*
Y337690D01*
X200605Y338395D01*
X201710Y340049D01*
X202098Y342000D01*
X201710Y343951D01*
X200605Y345605D01*
X198951Y346710D01*
X197000Y347098D01*
X195049Y346710D01*
X193395Y345605D01*
X192290Y343951D01*
X191902Y342000D01*
X192290Y340049D01*
X193395Y338395D01*
X193761Y338151D01*
X193717Y337709D01*
X192155Y337150D01*
X180769Y348536D01*
X181343Y349922D01*
X191104D01*
X192049Y349290D01*
X194000Y348902D01*
X195951Y349290D01*
X197605Y350395D01*
X198710Y352049D01*
X199098Y354000D01*
X198710Y355951D01*
X197605Y357605D01*
X195951Y358710D01*
X194000Y359098D01*
X192049Y358710D01*
X191104Y358078D01*
X180689D01*
X104578Y434189D01*
Y479250D01*
X104578Y479250D01*
X104268Y480811D01*
X103384Y482134D01*
X88495Y497023D01*
X87605Y498355D01*
X85951Y499460D01*
X84000Y499848D01*
X82049Y499460D01*
X81920Y499374D01*
X80839Y500455D01*
X81678Y501711D01*
X83794Y506002D01*
X85332Y510533D01*
X86265Y515226D01*
X86578Y520000D01*
X86265Y524774D01*
X85332Y529467D01*
X83794Y533998D01*
X81678Y538289D01*
X79019Y542267D01*
X75865Y545865D01*
X72267Y549020D01*
X68289Y551678D01*
X63998Y553794D01*
X59467Y555332D01*
X54774Y556265D01*
X50000Y556578D01*
X45226Y556265D01*
X40533Y555332D01*
X36002Y553794D01*
X31711Y551678D01*
X27733Y549020D01*
X24135Y545865D01*
X20981Y542267D01*
X18322Y538289D01*
X16206Y533998D01*
X14668Y529467D01*
X13735Y524774D01*
X13422Y520000D01*
X13735Y515226D01*
X14668Y510533D01*
X16206Y506002D01*
X18322Y501711D01*
X20981Y497733D01*
X24135Y494135D01*
X27733Y490980D01*
X31711Y488322D01*
X36002Y486206D01*
X40533Y484668D01*
X45226Y483735D01*
X50000Y483422D01*
X54774Y483735D01*
X59467Y484668D01*
X63998Y486206D01*
X68289Y488322D01*
X72267Y490980D01*
X75865Y494135D01*
X77657Y496179D01*
X79050Y495492D01*
X78902Y494750D01*
X79290Y492799D01*
X80395Y491145D01*
X82049Y490040D01*
X84000Y489652D01*
X84276Y489707D01*
X96422Y477561D01*
Y432500D01*
X96422Y432500D01*
X96732Y430939D01*
X97616Y429616D01*
X101298Y425935D01*
X100724Y424549D01*
X93056D01*
X90897Y426707D01*
Y430500D01*
X90897D01*
X90897Y432000D01*
Y438500D01*
X74791D01*
X74397Y438578D01*
X56638D01*
X55392Y440067D01*
X55449Y440500D01*
X55243Y442066D01*
X54638Y443526D01*
X53677Y444779D01*
X52423Y445741D01*
X50964Y446345D01*
X49397Y446552D01*
X47831Y446345D01*
X46371Y445741D01*
X45118Y444779D01*
X44156Y443526D01*
X43552Y442066D01*
X43346Y440500D01*
X43552Y438934D01*
X43731Y438500D01*
X42837Y436833D01*
X42019Y436664D01*
X41951Y436710D01*
X40000Y437098D01*
X38049Y436710D01*
X36395Y435605D01*
X35290Y433951D01*
X34902Y432000D01*
X35290Y430049D01*
X36395Y428395D01*
X38049Y427290D01*
X40000Y426902D01*
X41951Y427290D01*
X42896Y427922D01*
X45876D01*
X45876Y427922D01*
X52918D01*
X52918Y427922D01*
X54479Y428232D01*
X55802Y429116D01*
X56397Y429711D01*
X57897Y429090D01*
Y422500D01*
X57897Y414500D01*
X57779Y413049D01*
X27000D01*
X26024Y412855D01*
X25198Y412302D01*
X24495Y411600D01*
X23250Y411848D01*
X21299Y411460D01*
X19645Y410355D01*
X18540Y408701D01*
X18152Y406750D01*
X18540Y404799D01*
X19645Y403145D01*
X21299Y402040D01*
X23250Y401652D01*
X25201Y402040D01*
X26855Y403145D01*
X27960Y404799D01*
X28348Y406750D01*
X28340Y406791D01*
X29291Y407951D01*
X57897D01*
Y403250D01*
X74397D01*
X90897D01*
Y406500D01*
X90897Y414500D01*
X91016Y415951D01*
X101194D01*
X234230Y282915D01*
X233656Y281529D01*
X230000D01*
X229415Y281413D01*
X228919Y281081D01*
X228587Y280585D01*
X228471Y280000D01*
X226768D01*
X188634Y318134D01*
X187311Y319018D01*
X185750Y319328D01*
X185750Y319328D01*
X169439D01*
X133182Y355586D01*
X132960Y356701D01*
X131855Y358355D01*
X130201Y359460D01*
X128250Y359848D01*
X126299Y359460D01*
X124645Y358355D01*
X123540Y356701D01*
X123152Y354750D01*
X123540Y352799D01*
X124645Y351145D01*
X126299Y350040D01*
X127414Y349818D01*
X163048Y314185D01*
X162474Y312799D01*
X82338D01*
X81960Y314701D01*
X80855Y316355D01*
X79201Y317460D01*
X77250Y317848D01*
X75299Y317460D01*
X73645Y316355D01*
X72540Y314701D01*
X72152Y312750D01*
X72540Y310799D01*
X72659Y310622D01*
X71951Y309299D01*
X69556D01*
X67600Y311255D01*
X67848Y312500D01*
X67460Y314451D01*
X66355Y316105D01*
X64701Y317210D01*
X62750Y317598D01*
X60799Y317210D01*
X59145Y316105D01*
X58040Y314451D01*
X57652Y312500D01*
X58040Y310549D01*
X59145Y308895D01*
X60799Y307790D01*
X62750Y307402D01*
X63995Y307650D01*
X66698Y304948D01*
X67525Y304395D01*
X68500Y304201D01*
X180194D01*
X201480Y282915D01*
X200906Y281529D01*
X160966D01*
X160559Y283029D01*
X161855Y283895D01*
X162960Y285549D01*
X163348Y287500D01*
X162960Y289451D01*
X161855Y291105D01*
X160201Y292210D01*
X158250Y292598D01*
X156299Y292210D01*
X154645Y291105D01*
X153540Y289451D01*
X153318Y288336D01*
X153061Y288078D01*
X106750D01*
X106750Y288078D01*
X105189Y287768D01*
X103866Y286884D01*
X97915Y280933D01*
X97579Y280854D01*
X96104Y281082D01*
X95608Y281413D01*
X95022Y281529D01*
X44299D01*
Y359773D01*
X45605Y360645D01*
X46710Y362299D01*
X47098Y364250D01*
X46710Y366201D01*
X45605Y367855D01*
X43951Y368960D01*
X42000Y369348D01*
X40049Y368960D01*
X38395Y367855D01*
X37290Y366201D01*
X36902Y364250D01*
X37290Y362299D01*
X38395Y360645D01*
X39201Y360107D01*
Y281529D01*
X5000D01*
Y296744D01*
X6500Y297254D01*
X7044Y296544D01*
X8716Y295262D01*
X10662Y294456D01*
X12750Y294181D01*
X19750D01*
X21838Y294456D01*
X23784Y295262D01*
X25456Y296544D01*
X26738Y298216D01*
X27544Y300162D01*
X27819Y302250D01*
X27544Y304338D01*
X26738Y306285D01*
X25456Y307956D01*
X23784Y309238D01*
X21838Y310044D01*
X19750Y310319D01*
X12750D01*
X10662Y310044D01*
X8716Y309238D01*
X7044Y307956D01*
X6500Y307246D01*
X5000Y307755D01*
Y316745D01*
X6500Y317254D01*
X7044Y316544D01*
X8716Y315262D01*
X10662Y314456D01*
X12750Y314181D01*
X15500D01*
Y322250D01*
Y330319D01*
X12750D01*
X10662Y330044D01*
X8716Y329238D01*
X7044Y327956D01*
X6500Y327246D01*
X5000Y327756D01*
Y355664D01*
X5397Y357000D01*
X6500Y357000D01*
X18647D01*
Y373500D01*
Y390000D01*
X6500D01*
X5397Y390000D01*
X5000Y391335D01*
Y445665D01*
X5397Y447000D01*
X6500Y447000D01*
X18647D01*
Y463500D01*
Y480000D01*
X6500D01*
X5397Y480000D01*
X5000Y481335D01*
Y520000D01*
Y522949D01*
X5770Y528798D01*
X7297Y534496D01*
X9554Y539946D01*
X12504Y545054D01*
X16095Y549734D01*
X20266Y553905D01*
X24946Y557496D01*
X30054Y560446D01*
X35504Y562703D01*
X41202Y564230D01*
X47050Y565000D01*
X50000D01*
X50000Y565000D01*
X114309D01*
X114607Y563500D01*
X111432Y562185D01*
X107875Y560005D01*
X104704Y557296D01*
X101995Y554124D01*
X99815Y550568D01*
X98219Y546714D01*
X97245Y542658D01*
X96918Y538500D01*
X97245Y534342D01*
X98219Y530286D01*
X99815Y526432D01*
X101995Y522876D01*
X104704Y519704D01*
X107875Y516995D01*
X111432Y514815D01*
X115286Y513219D01*
X119342Y512245D01*
X123500Y511918D01*
X127658Y512245D01*
X131714Y513219D01*
X135568Y514815D01*
X139124Y516995D01*
X142296Y519704D01*
X145005Y522876D01*
X147185Y526432D01*
X148781Y530286D01*
X149755Y534342D01*
X150082Y538500D01*
X149755Y542658D01*
X148781Y546714D01*
X147185Y550568D01*
X145005Y554124D01*
X142296Y557296D01*
X139124Y560005D01*
X135568Y562185D01*
X132393Y563500D01*
X132691Y565000D01*
X268471D01*
Y560828D01*
D02*
G37*
G36*
X195451Y442194D02*
Y376335D01*
X194065Y375760D01*
X152559Y417267D01*
Y432530D01*
X153105Y432895D01*
X154210Y434549D01*
X154598Y436500D01*
X154210Y438451D01*
X153105Y440105D01*
X152227Y440691D01*
X152682Y442191D01*
X183053D01*
X183904Y440917D01*
X185558Y439812D01*
X187509Y439424D01*
X189460Y439812D01*
X191114Y440917D01*
X192219Y442571D01*
X192341Y443183D01*
X193968Y443677D01*
X195451Y442194D01*
D02*
G37*
G36*
X213198Y271198D02*
X229067Y255328D01*
X229146Y254992D01*
X228918Y253517D01*
X228587Y253021D01*
X228471Y252435D01*
Y244315D01*
X227085Y243741D01*
X210935Y259890D01*
X211710Y261049D01*
X212098Y263000D01*
X211710Y264951D01*
X210605Y266605D01*
X208951Y267710D01*
X207000Y268098D01*
X205049Y267710D01*
X203395Y266605D01*
X202290Y264951D01*
X201902Y263000D01*
X202290Y261049D01*
X203395Y259395D01*
X204049Y258958D01*
X204174Y258330D01*
X204837Y257337D01*
X211585Y250589D01*
X210629Y249424D01*
X210201Y249710D01*
X209086Y249932D01*
X184134Y274884D01*
X182811Y275768D01*
X181250Y276078D01*
X181250Y276078D01*
X115250D01*
X115250Y276078D01*
X113689Y275768D01*
X112366Y274884D01*
X112366Y274884D01*
X98866Y261384D01*
X97982Y260061D01*
X97672Y258500D01*
X97672Y258500D01*
Y99500D01*
X97672Y99500D01*
X97982Y97939D01*
X98866Y96616D01*
X111616Y83866D01*
X111616Y83866D01*
X112939Y82982D01*
X114500Y82672D01*
X228471D01*
Y53591D01*
X228519Y53346D01*
X228552Y53099D01*
X228577Y53055D01*
X228587Y53005D01*
X228725Y52798D01*
X228850Y52582D01*
X228436Y52004D01*
X227544Y51413D01*
X227397Y51442D01*
X227257Y51500D01*
X227107D01*
X226959Y51529D01*
X224441D01*
X224293Y51500D01*
X224142D01*
X224003Y51442D01*
X223856Y51413D01*
X223730Y51329D01*
X223591Y51272D01*
X223561Y51241D01*
X223299Y51077D01*
X222550Y51028D01*
X221775Y51105D01*
X221202Y51852D01*
X218800Y53695D01*
X216002Y54854D01*
X213000Y55249D01*
X209998Y54854D01*
X207200Y53695D01*
X204798Y51852D01*
X204225Y51105D01*
X203451Y51028D01*
X202700Y51077D01*
X202439Y51241D01*
X202409Y51272D01*
X202270Y51329D01*
X202144Y51413D01*
X201997Y51442D01*
X201857Y51500D01*
X201707D01*
X201559Y51529D01*
X199041D01*
X198893Y51500D01*
X198743D01*
X198603Y51442D01*
X198456Y51413D01*
X198330Y51329D01*
X198191Y51272D01*
X198161Y51241D01*
X197900Y51077D01*
X197149Y51028D01*
X196375Y51105D01*
X195802Y51852D01*
X193400Y53695D01*
X190602Y54854D01*
X187600Y55249D01*
X184598Y54854D01*
X181800Y53695D01*
X179398Y51852D01*
X178825Y51105D01*
X178051Y51028D01*
X177300Y51077D01*
X177039Y51241D01*
X177009Y51272D01*
X176870Y51329D01*
X176744Y51413D01*
X176597Y51442D01*
X176458Y51500D01*
X176307D01*
X176159Y51529D01*
X173641Y51529D01*
X173493Y51500D01*
X173343D01*
X173203Y51442D01*
X173056Y51413D01*
X172930Y51329D01*
X172791Y51272D01*
X172761Y51241D01*
X172500Y51077D01*
X171749Y51028D01*
X170975Y51105D01*
X170402Y51852D01*
X168000Y53695D01*
X165202Y54854D01*
X162200Y55249D01*
X159198Y54854D01*
X156400Y53695D01*
X153998Y51852D01*
X152577Y50000D01*
X147523D01*
X147185Y50818D01*
X145005Y54374D01*
X142296Y57546D01*
X139124Y60255D01*
X135568Y62435D01*
X131714Y64031D01*
X127658Y65005D01*
X123500Y65332D01*
X119342Y65005D01*
X115286Y64031D01*
X111432Y62435D01*
X107875Y60255D01*
X104704Y57546D01*
X101995Y54374D01*
X99815Y50818D01*
X99476Y50000D01*
X94578D01*
Y266061D01*
X108439Y279922D01*
X154750D01*
X154750Y279922D01*
X155144Y280000D01*
X204395D01*
X213198Y271198D01*
D02*
G37*
G36*
X295511Y272384D02*
X294937Y270999D01*
X263256D01*
X255640Y278614D01*
X256214Y280000D01*
X270000D01*
Y295935D01*
X271386Y296509D01*
X295511Y272384D01*
D02*
G37*
G36*
X203318Y244164D02*
X203540Y243049D01*
X204645Y241395D01*
X206299Y240290D01*
X208250Y239902D01*
X210201Y240290D01*
X211855Y241395D01*
X212960Y243049D01*
X213348Y245000D01*
X212960Y246951D01*
X212674Y247379D01*
X213839Y248335D01*
X227837Y234337D01*
X227837Y234337D01*
X228471Y233914D01*
Y222616D01*
X227085Y222042D01*
X225824Y223302D01*
X224997Y223855D01*
X224022Y224049D01*
X182060D01*
X181355Y225105D01*
X179701Y226210D01*
X177750Y226598D01*
X175799Y226210D01*
X174145Y225105D01*
X173040Y223451D01*
X172652Y221500D01*
X173040Y219549D01*
X174145Y217895D01*
X175799Y216790D01*
X177750Y216402D01*
X179701Y216790D01*
X181355Y217895D01*
X182060Y218951D01*
X222966D01*
X229067Y212850D01*
X229146Y212514D01*
X228918Y211039D01*
X228587Y210542D01*
X228471Y209957D01*
Y180799D01*
X186556D01*
X182799Y184556D01*
Y197000D01*
X182605Y197975D01*
X182558Y198045D01*
X182848Y199500D01*
X182460Y201451D01*
X181355Y203105D01*
X179701Y204210D01*
X177750Y204598D01*
X175799Y204210D01*
X174145Y203105D01*
X173040Y201451D01*
X172652Y199500D01*
X173040Y197549D01*
X174145Y195895D01*
X175799Y194790D01*
X177701Y194412D01*
Y183500D01*
X177722Y183393D01*
X177750Y182598D01*
X175799Y182210D01*
X174145Y181105D01*
X173040Y179451D01*
X172652Y177500D01*
X173040Y175549D01*
X174145Y173895D01*
X175799Y172790D01*
X175927Y172765D01*
Y171235D01*
X175799Y171210D01*
X174145Y170105D01*
X173040Y168451D01*
X172652Y166500D01*
X173040Y164549D01*
X174145Y162895D01*
X175799Y161790D01*
X175927Y161765D01*
Y160235D01*
X175799Y160210D01*
X174145Y159105D01*
X173040Y157451D01*
X172652Y155500D01*
X173040Y153549D01*
X174145Y151895D01*
X175799Y150790D01*
X177750Y150402D01*
X179701Y150790D01*
X181355Y151895D01*
X182460Y153549D01*
X182848Y155500D01*
X182460Y157451D01*
X181897Y158293D01*
X188806Y165201D01*
X228225D01*
X228846Y163701D01*
X211444Y146299D01*
X148905D01*
X132716Y162488D01*
X132855Y163895D01*
X133960Y165549D01*
X134348Y167500D01*
X133960Y169451D01*
X132855Y171105D01*
X131201Y172210D01*
X129250Y172598D01*
X127299Y172210D01*
X127122Y172091D01*
X125799Y172799D01*
Y223194D01*
X131806Y229201D01*
X173750D01*
X174725Y229395D01*
X175552Y229948D01*
X176504Y230900D01*
X177750Y230652D01*
X179701Y231040D01*
X181355Y232145D01*
X182460Y233799D01*
X182848Y235750D01*
X182460Y237701D01*
X181355Y239355D01*
X179701Y240460D01*
X177750Y240848D01*
X175799Y240460D01*
X174145Y239355D01*
X173040Y237701D01*
X172652Y235750D01*
X171411Y234299D01*
X130750D01*
X129775Y234105D01*
X128948Y233552D01*
X123685Y228290D01*
X122299Y228864D01*
Y247444D01*
X125321Y250466D01*
X126951Y250790D01*
X128605Y251895D01*
X129710Y253549D01*
X130098Y255500D01*
X129710Y257451D01*
X128605Y259105D01*
X126951Y260210D01*
X125000Y260598D01*
X123049Y260210D01*
X121395Y259105D01*
X120382D01*
X119788Y259399D01*
X118201Y260460D01*
X116250Y260848D01*
X114299Y260460D01*
X112645Y259355D01*
X111540Y257701D01*
X111152Y255750D01*
X111540Y253799D01*
X112645Y252145D01*
X113701Y251440D01*
Y160500D01*
X113895Y159524D01*
X114448Y158698D01*
X141698Y131448D01*
X142525Y130895D01*
X143500Y130701D01*
X211694D01*
X229198Y113198D01*
X229212Y113112D01*
X228631Y111772D01*
X228587Y111706D01*
X228566Y111599D01*
X228519Y111502D01*
X228508Y111309D01*
X228471Y111121D01*
Y98756D01*
X228489Y98667D01*
X228481Y98575D01*
X228546Y98377D01*
X228587Y98171D01*
X228638Y98095D01*
X228666Y98008D01*
X228802Y97849D01*
X228919Y97675D01*
X228995Y97624D01*
X229054Y97555D01*
X229339Y97330D01*
X229556Y97220D01*
X229764Y97094D01*
X230000Y97009D01*
Y95999D01*
X229652Y94250D01*
X230000Y92501D01*
Y90828D01*
X218960D01*
X218505Y92328D01*
X218605Y92395D01*
X219710Y94049D01*
X220098Y96000D01*
X219710Y97951D01*
X218605Y99605D01*
X218059Y99970D01*
Y110563D01*
X219201Y110790D01*
X220855Y111895D01*
X221960Y113549D01*
X222348Y115500D01*
X221960Y117451D01*
X220855Y119105D01*
X219201Y120210D01*
X217250Y120598D01*
X215299Y120210D01*
X213645Y119105D01*
X212540Y117451D01*
X212152Y115500D01*
X212323Y114643D01*
X212174Y114420D01*
X211941Y113250D01*
X211941Y113250D01*
Y99970D01*
X211395Y99605D01*
X210290Y97951D01*
X209902Y96000D01*
X210290Y94049D01*
X211395Y92395D01*
X211495Y92328D01*
X211040Y90828D01*
X116189D01*
X105828Y101189D01*
Y256811D01*
X116939Y267922D01*
X179561D01*
X203318Y244164D01*
D02*
G37*
G36*
X399201Y278444D02*
Y221806D01*
X396733Y219338D01*
X395145Y219461D01*
X394049Y220638D01*
Y255700D01*
X393855Y256675D01*
X393302Y257502D01*
X377052Y273752D01*
X376226Y274305D01*
X375250Y274499D01*
X300606D01*
X289090Y286015D01*
X289664Y287401D01*
X390244D01*
X399201Y278444D01*
D02*
G37*
G36*
X95597Y278614D02*
X87616Y270634D01*
X86732Y269311D01*
X86422Y267750D01*
X86422Y267750D01*
Y60924D01*
X84922Y60676D01*
X83794Y63998D01*
X81678Y68289D01*
X79019Y72267D01*
X75865Y75865D01*
X72267Y79019D01*
X68289Y81678D01*
X63998Y83794D01*
X59467Y85332D01*
X54774Y86265D01*
X50000Y86578D01*
X45226Y86265D01*
X40533Y85332D01*
X36002Y83794D01*
X31711Y81678D01*
X27733Y79019D01*
X24135Y75865D01*
X20981Y72267D01*
X18322Y68289D01*
X16206Y63998D01*
X14668Y59467D01*
X13735Y54774D01*
X13527Y51610D01*
X13422Y51529D01*
X5000D01*
Y280000D01*
X39201D01*
Y225310D01*
X38145Y224605D01*
X37040Y222951D01*
X36652Y221000D01*
X37040Y219049D01*
X38145Y217395D01*
X39799Y216290D01*
X41750Y215902D01*
X43701Y216290D01*
X45355Y217395D01*
X46460Y219049D01*
X46848Y221000D01*
X46460Y222951D01*
X45355Y224605D01*
X44299Y225310D01*
Y280000D01*
X95022D01*
X95597Y278614D01*
D02*
G37*
G36*
X292948Y224198D02*
X293775Y223645D01*
X294750Y223451D01*
X321485D01*
X322461Y223645D01*
X323288Y224198D01*
X326802Y227712D01*
X327355Y228539D01*
X327549Y229515D01*
Y234777D01*
X327355Y235753D01*
X326802Y236580D01*
X324116Y239266D01*
X324364Y240512D01*
X323975Y242463D01*
X322870Y244116D01*
X321217Y245222D01*
X319266Y245610D01*
X317315Y245222D01*
X315661Y244116D01*
X314556Y242463D01*
X314168Y240512D01*
X314556Y238561D01*
X315347Y237377D01*
X315395Y235605D01*
X314290Y233951D01*
X313912Y232049D01*
X297256D01*
X264790Y264515D01*
X265364Y265901D01*
X372744D01*
X385451Y253194D01*
Y222063D01*
X383198Y219810D01*
X352511D01*
X351535Y219616D01*
X350709Y219063D01*
X336496Y204850D01*
X335250Y205098D01*
X333299Y204710D01*
X331645Y203605D01*
X330540Y201951D01*
X330152Y200000D01*
X330540Y198049D01*
X331645Y196395D01*
X333299Y195290D01*
X335250Y194902D01*
X337201Y195290D01*
X338855Y196395D01*
X339960Y198049D01*
X340186Y199184D01*
X341715D01*
X342040Y197549D01*
X343145Y195895D01*
X344799Y194790D01*
X346750Y194402D01*
X348701Y194790D01*
X350355Y195895D01*
X351460Y197549D01*
X351848Y199500D01*
X351460Y201451D01*
X350355Y203105D01*
X349299Y203810D01*
Y205494D01*
X355016Y211212D01*
X385704D01*
X386679Y211406D01*
X387506Y211959D01*
X388818Y213270D01*
X390445Y212776D01*
X390540Y212299D01*
X391645Y210645D01*
X392660Y209967D01*
X393037Y208298D01*
X392991Y208079D01*
X392573Y207549D01*
X378535D01*
X377560Y207355D01*
X376733Y206802D01*
X372480Y202549D01*
X366060D01*
X365355Y203605D01*
X363701Y204710D01*
X361750Y205098D01*
X359799Y204710D01*
X358145Y203605D01*
X357040Y201951D01*
X356652Y200000D01*
X357040Y198049D01*
X358145Y196395D01*
X359799Y195290D01*
X361750Y194902D01*
X363701Y195290D01*
X365355Y196395D01*
X366060Y197451D01*
X370372D01*
X370946Y196065D01*
X360437Y185556D01*
X359002Y185992D01*
X358960Y186201D01*
X357855Y187855D01*
X356201Y188960D01*
X354250Y189348D01*
X352299Y188960D01*
X350645Y187855D01*
X349940Y186799D01*
X331791D01*
X322288Y196302D01*
X321461Y196855D01*
X320485Y197049D01*
X315515D01*
X314539Y196855D01*
X313712Y196302D01*
X309959Y192549D01*
X303799D01*
X303091Y193872D01*
X303210Y194049D01*
X303598Y196000D01*
X303210Y197951D01*
X302105Y199605D01*
X300451Y200710D01*
X298500Y201098D01*
X296549Y200710D01*
X294895Y199605D01*
X294190Y198549D01*
X269556D01*
X258899Y209206D01*
Y236600D01*
X258705Y237575D01*
X258152Y238402D01*
X231743Y264811D01*
X232178Y266247D01*
X232462Y266303D01*
X234116Y267408D01*
X235221Y269062D01*
X235609Y271013D01*
X235221Y272964D01*
X234116Y274618D01*
X232462Y275723D01*
X230693Y276075D01*
X230000Y276768D01*
Y280000D01*
X237145D01*
X292948Y224198D01*
D02*
G37*
G36*
X246823Y237573D02*
X246823Y237572D01*
X250301Y234094D01*
Y206700D01*
X250495Y205725D01*
X251047Y204898D01*
X265248Y190698D01*
X266075Y190145D01*
X267050Y189951D01*
X292459D01*
X294212Y188198D01*
X295039Y187645D01*
X296015Y187451D01*
X311015D01*
X312328Y186204D01*
X312381Y185486D01*
X307694Y180799D01*
X230000D01*
Y209957D01*
X231386Y210531D01*
X242912Y199005D01*
X242664Y197760D01*
X243052Y195809D01*
X244157Y194155D01*
X245811Y193050D01*
X247762Y192662D01*
X249713Y193050D01*
X251367Y194155D01*
X252472Y195809D01*
X252860Y197760D01*
X252472Y199711D01*
X251367Y201364D01*
X249713Y202470D01*
X247762Y202858D01*
X246517Y202610D01*
X230000Y219126D01*
Y252435D01*
X231386Y253009D01*
X246823Y237573D01*
D02*
G37*
G36*
X509951Y215438D02*
Y206102D01*
X507198Y203348D01*
X506645Y202521D01*
X506451Y201546D01*
Y189205D01*
X503698Y186452D01*
X503145Y185625D01*
X502951Y184650D01*
Y176655D01*
X453095Y126799D01*
X376792D01*
X376337Y128299D01*
X376855Y128645D01*
X377960Y130299D01*
X378348Y132250D01*
X377960Y134201D01*
X376855Y135855D01*
X375201Y136960D01*
X374049Y137189D01*
Y141952D01*
X375372Y142659D01*
X375549Y142540D01*
X377500Y142152D01*
X379451Y142540D01*
X381105Y143645D01*
X382210Y145299D01*
X382598Y147250D01*
X382210Y149201D01*
X381105Y150855D01*
X380998Y151943D01*
X386506Y157451D01*
X423838D01*
X424640Y155951D01*
X424311Y155458D01*
X424209Y154944D01*
X422971Y153967D01*
X421021Y154355D01*
X419070Y153967D01*
X417416Y152862D01*
X416311Y151208D01*
X416210Y150702D01*
X415064Y150227D01*
X414587Y150232D01*
X412750Y150598D01*
X410799Y150210D01*
X409145Y149105D01*
X408040Y147451D01*
X407652Y145500D01*
X408040Y143549D01*
X409145Y141895D01*
X410799Y140790D01*
X412750Y140402D01*
X414641Y140778D01*
X414993Y140708D01*
X432206D01*
X433181Y140902D01*
X434008Y141455D01*
X508565Y216012D01*
X509951Y215438D01*
D02*
G37*
G36*
X442912Y205815D02*
X420895Y183799D01*
X386901D01*
X385925Y183605D01*
X385098Y183052D01*
X359198Y157152D01*
X358645Y156325D01*
X358451Y155349D01*
Y145056D01*
X354694Y141299D01*
X342250D01*
X341275Y141105D01*
X340448Y140552D01*
X333194Y133299D01*
X322560D01*
X321855Y134355D01*
X320201Y135460D01*
X318250Y135848D01*
X316299Y135460D01*
X314645Y134355D01*
X313540Y132701D01*
X313152Y130750D01*
X313540Y128799D01*
X314645Y127145D01*
X316299Y126040D01*
X318250Y125652D01*
X320201Y126040D01*
X321855Y127145D01*
X322560Y128201D01*
X334250D01*
X335225Y128395D01*
X336052Y128948D01*
X339460Y132356D01*
X341039Y131813D01*
X341290Y130549D01*
X342395Y128895D01*
X344049Y127790D01*
X346000Y127402D01*
X347245Y127650D01*
X352448Y122448D01*
X353274Y121895D01*
X354250Y121701D01*
X358886D01*
X359460Y120315D01*
X356496Y117350D01*
X355250Y117598D01*
X353299Y117210D01*
X351645Y116105D01*
X350540Y114451D01*
X350152Y112500D01*
X350540Y110549D01*
X351645Y108895D01*
X353299Y107790D01*
X355250Y107402D01*
X357201Y107790D01*
X358855Y108895D01*
X359960Y110549D01*
X360348Y112500D01*
X360100Y113745D01*
X364556Y118201D01*
X366833D01*
X367287Y116701D01*
X366395Y116105D01*
X365290Y114451D01*
X364902Y112500D01*
X365290Y110549D01*
X366395Y108895D01*
X368049Y107790D01*
X370000Y107402D01*
X371245Y107650D01*
X373210Y105685D01*
X372636Y104299D01*
X320306D01*
X315799Y108806D01*
Y119485D01*
X315605Y120461D01*
X315052Y121288D01*
X291299Y145041D01*
Y148690D01*
X292355Y149395D01*
X293460Y151049D01*
X293848Y153000D01*
X293460Y154951D01*
X292355Y156605D01*
X290701Y157710D01*
X288750Y158098D01*
X286799Y157710D01*
X285145Y156605D01*
X284040Y154951D01*
X283652Y153000D01*
X284040Y151049D01*
X285145Y149395D01*
X286201Y148690D01*
Y143985D01*
X286395Y143010D01*
X286948Y142183D01*
X305944Y123187D01*
X305508Y121751D01*
X305299Y121710D01*
X303645Y120605D01*
X302540Y118951D01*
X302152Y117000D01*
X302540Y115049D01*
X303645Y113395D01*
X304191Y113030D01*
Y100809D01*
X241500D01*
X240329Y100576D01*
X239337Y99913D01*
X239337Y99913D01*
X237710Y98286D01*
X236701Y98960D01*
X234750Y99348D01*
X232799Y98960D01*
X231500Y98092D01*
X230285Y98532D01*
X230000Y98756D01*
Y111121D01*
X231000Y112451D01*
X269194D01*
X270900Y110745D01*
X270652Y109500D01*
X271040Y107549D01*
X272145Y105895D01*
X273799Y104790D01*
X275750Y104402D01*
X277701Y104790D01*
X279355Y105895D01*
X280460Y107549D01*
X280848Y109500D01*
X280460Y111451D01*
X279355Y113105D01*
X277701Y114210D01*
X276489Y114451D01*
X276637Y115951D01*
X287440D01*
X288145Y114895D01*
X289799Y113790D01*
X291750Y113402D01*
X293701Y113790D01*
X295355Y114895D01*
X296460Y116549D01*
X296848Y118500D01*
X296460Y120451D01*
X295355Y122105D01*
X293701Y123210D01*
X291750Y123598D01*
X289799Y123210D01*
X288145Y122105D01*
X287440Y121049D01*
X234056D01*
X230000Y125105D01*
Y138507D01*
X230098Y139000D01*
X230000Y139493D01*
Y152696D01*
X235506Y158201D01*
X247444D01*
X249150Y156496D01*
X248902Y155250D01*
X249290Y153299D01*
X250395Y151645D01*
X252049Y150540D01*
X254000Y150152D01*
X255951Y150540D01*
X257605Y151645D01*
X258710Y153299D01*
X258963Y154573D01*
X260511Y155250D01*
X260511D01*
X261562Y154548D01*
X263513Y154160D01*
X265464Y154548D01*
X267118Y155653D01*
X268223Y157307D01*
X268611Y159258D01*
X268223Y161209D01*
X267118Y162863D01*
X265863Y163701D01*
X266318Y165201D01*
X302803D01*
X303167Y164758D01*
X303555Y162807D01*
X304660Y161153D01*
X306314Y160048D01*
X308265Y159660D01*
X308707Y159748D01*
X310167Y159508D01*
X310336Y158659D01*
X310555Y157557D01*
X311423Y156258D01*
X311568Y155258D01*
X311423Y154257D01*
X310555Y152958D01*
X310167Y151007D01*
X310555Y149057D01*
X311537Y147587D01*
X311689Y146986D01*
Y145884D01*
X311645Y145855D01*
X310540Y144201D01*
X310152Y142250D01*
X310540Y140299D01*
X311645Y138645D01*
X313299Y137540D01*
X315250Y137152D01*
X317201Y137540D01*
X318855Y138645D01*
X319960Y140299D01*
X320348Y142250D01*
X320100Y143495D01*
X326802Y150198D01*
X327355Y151025D01*
X327549Y152000D01*
Y158287D01*
X337963Y168701D01*
X359635D01*
X360610Y168895D01*
X361437Y169448D01*
X383941Y191951D01*
X398834D01*
X399810Y192145D01*
X400637Y192698D01*
X415140Y207201D01*
X442337D01*
X442912Y205815D01*
D02*
G37*
G36*
X228471Y149206D02*
Y139493D01*
X228500Y139345D01*
Y139194D01*
X228539Y139000D01*
X228500Y138806D01*
Y138655D01*
X228471Y138507D01*
Y128594D01*
X227085Y128020D01*
X216552Y138552D01*
X216490Y139185D01*
X227085Y149780D01*
X228471Y149206D01*
D02*
G37*
G36*
X13735Y45226D02*
X14668Y40533D01*
X16206Y36002D01*
X18322Y31711D01*
X20981Y27733D01*
X24135Y24135D01*
X27733Y20981D01*
X31711Y18322D01*
X36002Y16206D01*
X40533Y14668D01*
X45226Y13735D01*
X50000Y13422D01*
X54774Y13735D01*
X59467Y14668D01*
X63998Y16206D01*
X68289Y18322D01*
X72267Y20981D01*
X75865Y24135D01*
X79019Y27733D01*
X81678Y31711D01*
X83794Y36002D01*
X84922Y39324D01*
X86422Y39076D01*
Y30738D01*
X86422Y30738D01*
X86732Y29177D01*
X87616Y27854D01*
X108604Y6866D01*
X108604Y6866D01*
X109152Y6500D01*
X108697Y5000D01*
X50000D01*
X47050D01*
X41202Y5770D01*
X35504Y7297D01*
X30054Y9554D01*
X24946Y12503D01*
X20266Y16095D01*
X16095Y20266D01*
X12503Y24946D01*
X9554Y30054D01*
X7297Y35504D01*
X5770Y41202D01*
X5000Y47050D01*
X5000Y50000D01*
X13422D01*
X13735Y45226D01*
D02*
G37*
%LPC*%
G36*
X354750Y545500D02*
Y534750D01*
X365500D01*
X365204Y537002D01*
X364045Y539800D01*
X362202Y542202D01*
X359800Y544045D01*
X357002Y545204D01*
X354750Y545500D01*
D02*
G37*
G36*
X353250D02*
X350998Y545204D01*
X348200Y544045D01*
X345798Y542202D01*
X343955Y539800D01*
X342796Y537002D01*
X342500Y534750D01*
X353250D01*
Y545500D01*
D02*
G37*
G36*
X365500Y533250D02*
X354750D01*
Y522500D01*
X357002Y522796D01*
X359800Y523955D01*
X362202Y525798D01*
X364045Y528200D01*
X365204Y530998D01*
X365500Y533250D01*
D02*
G37*
G36*
X353250D02*
X342500D01*
X342796Y530998D01*
X343955Y528200D01*
X345798Y525798D01*
X348200Y523955D01*
X350998Y522796D01*
X353250Y522500D01*
Y533250D01*
D02*
G37*
G36*
X844000Y523330D02*
X840765Y523011D01*
X837655Y522068D01*
X834789Y520536D01*
X832276Y518474D01*
X830214Y515961D01*
X828682Y513095D01*
X827739Y509985D01*
X827420Y506750D01*
X827739Y503515D01*
X828682Y500405D01*
X830214Y497539D01*
X832276Y495026D01*
X834789Y492964D01*
X837655Y491432D01*
X840765Y490489D01*
X844000Y490170D01*
X847235Y490489D01*
X850345Y491432D01*
X853211Y492964D01*
X855724Y495026D01*
X857786Y497539D01*
X859318Y500405D01*
X860261Y503515D01*
X860580Y506750D01*
X860261Y509985D01*
X859318Y513095D01*
X857786Y515961D01*
X855724Y518474D01*
X853211Y520536D01*
X850345Y522068D01*
X847235Y523011D01*
X844000Y523330D01*
D02*
G37*
G36*
X769750D02*
X766515Y523011D01*
X763405Y522068D01*
X760539Y520536D01*
X758026Y518474D01*
X755964Y515961D01*
X754432Y513095D01*
X753489Y509985D01*
X753170Y506750D01*
X753489Y503515D01*
X754432Y500405D01*
X755964Y497539D01*
X758026Y495026D01*
X760539Y492964D01*
X763405Y491432D01*
X766515Y490489D01*
X769750Y490170D01*
X772985Y490489D01*
X776095Y491432D01*
X778961Y492964D01*
X781474Y495026D01*
X783536Y497539D01*
X785068Y500405D01*
X786011Y503515D01*
X786330Y506750D01*
X786011Y509985D01*
X785068Y513095D01*
X783536Y515961D01*
X781474Y518474D01*
X778961Y520536D01*
X776095Y522068D01*
X772985Y523011D01*
X769750Y523330D01*
D02*
G37*
G36*
X369000D02*
X365765Y523011D01*
X362655Y522068D01*
X359789Y520536D01*
X357276Y518474D01*
X355214Y515961D01*
X353682Y513095D01*
X352739Y509985D01*
X352420Y506750D01*
X352739Y503515D01*
X353682Y500405D01*
X355214Y497539D01*
X357276Y495026D01*
X359789Y492964D01*
X362655Y491432D01*
X365765Y490489D01*
X369000Y490170D01*
X372235Y490489D01*
X375345Y491432D01*
X378211Y492964D01*
X380724Y495026D01*
X382786Y497539D01*
X384318Y500405D01*
X385261Y503515D01*
X385580Y506750D01*
X385261Y509985D01*
X384318Y513095D01*
X382786Y515961D01*
X380724Y518474D01*
X378211Y520536D01*
X375345Y522068D01*
X372235Y523011D01*
X369000Y523330D01*
D02*
G37*
G36*
X294750D02*
X291515Y523011D01*
X288405Y522068D01*
X285539Y520536D01*
X283026Y518474D01*
X280964Y515961D01*
X279432Y513095D01*
X278489Y509985D01*
X278170Y506750D01*
X278489Y503515D01*
X279432Y500405D01*
X280964Y497539D01*
X283026Y495026D01*
X285539Y492964D01*
X288405Y491432D01*
X291515Y490489D01*
X294750Y490170D01*
X297985Y490489D01*
X301095Y491432D01*
X303961Y492964D01*
X306474Y495026D01*
X308536Y497539D01*
X310068Y500405D01*
X311011Y503515D01*
X311330Y506750D01*
X311011Y509985D01*
X310068Y513095D01*
X308536Y515961D01*
X306474Y518474D01*
X303961Y520536D01*
X301095Y522068D01*
X297985Y523011D01*
X294750Y523330D01*
D02*
G37*
G36*
X900000Y556578D02*
X895226Y556265D01*
X890533Y555332D01*
X886002Y553794D01*
X881711Y551678D01*
X877732Y549020D01*
X874135Y545865D01*
X870981Y542267D01*
X868322Y538289D01*
X866206Y533998D01*
X864668Y529467D01*
X863735Y524774D01*
X863422Y520000D01*
X863735Y515226D01*
X864668Y510533D01*
X866206Y506002D01*
X868322Y501711D01*
X870981Y497733D01*
X874135Y494135D01*
X877732Y490980D01*
X881711Y488322D01*
X886002Y486206D01*
X890533Y484668D01*
X895226Y483735D01*
X900000Y483422D01*
X904774Y483735D01*
X909467Y484668D01*
X913998Y486206D01*
X918289Y488322D01*
X922268Y490980D01*
X925865Y494135D01*
X929019Y497733D01*
X931678Y501711D01*
X933794Y506002D01*
X935332Y510533D01*
X936265Y515226D01*
X936578Y520000D01*
X936265Y524774D01*
X935332Y529467D01*
X933794Y533998D01*
X931678Y538289D01*
X929019Y542267D01*
X925865Y545865D01*
X922268Y549020D01*
X918289Y551678D01*
X913998Y553794D01*
X909467Y555332D01*
X904774Y556265D01*
X900000Y556578D01*
D02*
G37*
G36*
X624000Y462732D02*
Y452003D01*
X632328D01*
Y453753D01*
X632018Y456102D01*
X631111Y458291D01*
X629669Y460171D01*
X627789Y461614D01*
X625599Y462521D01*
X624000Y462732D01*
D02*
G37*
G36*
X622500D02*
X620900Y462521D01*
X618711Y461614D01*
X616831Y460171D01*
X615388Y458291D01*
X614482Y456102D01*
X614172Y453753D01*
Y452003D01*
X622500D01*
Y462732D01*
D02*
G37*
G36*
X632328Y450503D02*
X624000D01*
Y439774D01*
X625599Y439984D01*
X627789Y440891D01*
X629669Y442334D01*
X631111Y444214D01*
X632018Y446403D01*
X632328Y448753D01*
Y450503D01*
D02*
G37*
G36*
X622500D02*
X614172D01*
Y448753D01*
X614482Y446403D01*
X615388Y444214D01*
X616831Y442334D01*
X618711Y440891D01*
X620900Y439984D01*
X622500Y439774D01*
Y450503D01*
D02*
G37*
G36*
X603250Y462830D02*
X600900Y462521D01*
X598711Y461614D01*
X596831Y460171D01*
X595388Y458291D01*
X594482Y456102D01*
X594172Y453753D01*
Y448753D01*
X594482Y446403D01*
X595388Y444214D01*
X596831Y442334D01*
X598711Y440891D01*
X600900Y439984D01*
X603250Y439675D01*
X605599Y439984D01*
X607789Y440891D01*
X609669Y442334D01*
X611111Y444214D01*
X612018Y446403D01*
X612328Y448753D01*
Y453753D01*
X612018Y456102D01*
X611111Y458291D01*
X609669Y460171D01*
X607789Y461614D01*
X605599Y462521D01*
X603250Y462830D01*
D02*
G37*
G36*
X583250D02*
X580900Y462521D01*
X578711Y461614D01*
X576831Y460171D01*
X575388Y458291D01*
X574482Y456102D01*
X574172Y453753D01*
Y448753D01*
X574482Y446403D01*
X575388Y444214D01*
X576831Y442334D01*
X576871Y441726D01*
X568194Y433049D01*
X454750D01*
X453774Y432855D01*
X452948Y432302D01*
X423198Y402552D01*
X422645Y401726D01*
X422451Y400750D01*
Y239310D01*
X421395Y238605D01*
X420290Y236951D01*
X419902Y235000D01*
X420290Y233049D01*
X421395Y231395D01*
X423049Y230290D01*
X425000Y229902D01*
X426951Y230290D01*
X427118Y230402D01*
X428441Y229695D01*
Y227250D01*
X428441Y227250D01*
X428674Y226080D01*
X428823Y225857D01*
X428652Y225000D01*
X429040Y223049D01*
X430145Y221395D01*
X431799Y220290D01*
X433750Y219902D01*
X435701Y220290D01*
X437355Y221395D01*
X438460Y223049D01*
X438848Y225000D01*
X438460Y226951D01*
X437355Y228605D01*
X435701Y229710D01*
X434559Y229937D01*
Y237692D01*
X434559Y237692D01*
X434326Y238863D01*
X433663Y239855D01*
X432059Y241459D01*
Y362233D01*
X433231Y363405D01*
X433875Y363277D01*
X435826Y363665D01*
X437480Y364770D01*
X438585Y366424D01*
X438973Y368375D01*
X438585Y370326D01*
X437480Y371980D01*
X435826Y373085D01*
X433875Y373473D01*
X431924Y373085D01*
X430270Y371980D01*
X429165Y370326D01*
X429049Y369742D01*
X427549Y369890D01*
Y399694D01*
X455806Y427951D01*
X569250D01*
X570225Y428145D01*
X571052Y428698D01*
X582172Y439817D01*
X583250Y439675D01*
X585599Y439984D01*
X587789Y440891D01*
X589669Y442334D01*
X591111Y444214D01*
X592018Y446403D01*
X592328Y448753D01*
Y453753D01*
X592018Y456102D01*
X591111Y458291D01*
X589669Y460171D01*
X587789Y461614D01*
X585599Y462521D01*
X583250Y462830D01*
D02*
G37*
G36*
X563250D02*
X560900Y462521D01*
X558711Y461614D01*
X556831Y460171D01*
X555388Y458291D01*
X554482Y456102D01*
X554172Y453753D01*
Y448753D01*
X554482Y446403D01*
X555388Y444214D01*
X556831Y442334D01*
X558711Y440891D01*
X560900Y439984D01*
X563250Y439675D01*
X565599Y439984D01*
X567789Y440891D01*
X569669Y442334D01*
X571111Y444214D01*
X572018Y446403D01*
X572328Y448753D01*
Y453753D01*
X572018Y456102D01*
X571111Y458291D01*
X569669Y460171D01*
X567789Y461614D01*
X565599Y462521D01*
X563250Y462830D01*
D02*
G37*
G36*
X543250D02*
X540900Y462521D01*
X538711Y461614D01*
X536831Y460171D01*
X535388Y458291D01*
X534482Y456102D01*
X534172Y453753D01*
Y448753D01*
X534482Y446403D01*
X535388Y444214D01*
X536831Y442334D01*
X538711Y440891D01*
X540900Y439984D01*
X543250Y439675D01*
X545599Y439984D01*
X547789Y440891D01*
X549669Y442334D01*
X551111Y444214D01*
X552018Y446403D01*
X552328Y448753D01*
Y453753D01*
X552018Y456102D01*
X551111Y458291D01*
X549669Y460171D01*
X547789Y461614D01*
X545599Y462521D01*
X543250Y462830D01*
D02*
G37*
G36*
X523250D02*
X520900Y462521D01*
X518711Y461614D01*
X516831Y460171D01*
X515388Y458291D01*
X514482Y456102D01*
X514172Y453753D01*
Y448753D01*
X514482Y446403D01*
X515388Y444214D01*
X516831Y442334D01*
X518711Y440891D01*
X520900Y439984D01*
X523250Y439675D01*
X525599Y439984D01*
X527789Y440891D01*
X529669Y442334D01*
X531111Y444214D01*
X532018Y446403D01*
X532328Y448753D01*
Y453753D01*
X532018Y456102D01*
X531111Y458291D01*
X529669Y460171D01*
X527789Y461614D01*
X525599Y462521D01*
X523250Y462830D01*
D02*
G37*
G36*
X503250D02*
X500900Y462521D01*
X498711Y461614D01*
X496831Y460171D01*
X495388Y458291D01*
X494482Y456102D01*
X494172Y453753D01*
Y448753D01*
X494482Y446403D01*
X495388Y444214D01*
X496831Y442334D01*
X498711Y440891D01*
X500900Y439984D01*
X503250Y439675D01*
X505599Y439984D01*
X507789Y440891D01*
X509669Y442334D01*
X511111Y444214D01*
X512018Y446403D01*
X512328Y448753D01*
Y453753D01*
X512018Y456102D01*
X511111Y458291D01*
X509669Y460171D01*
X507789Y461614D01*
X505599Y462521D01*
X503250Y462830D01*
D02*
G37*
G36*
X483250D02*
X480900Y462521D01*
X478711Y461614D01*
X476831Y460171D01*
X475388Y458291D01*
X474482Y456102D01*
X474172Y453753D01*
Y448753D01*
X474482Y446403D01*
X475388Y444214D01*
X476831Y442334D01*
X478711Y440891D01*
X480900Y439984D01*
X483250Y439675D01*
X485599Y439984D01*
X487789Y440891D01*
X489669Y442334D01*
X491111Y444214D01*
X492018Y446403D01*
X492328Y448753D01*
Y453753D01*
X492018Y456102D01*
X491111Y458291D01*
X489669Y460171D01*
X487789Y461614D01*
X485599Y462521D01*
X483250Y462830D01*
D02*
G37*
G36*
X463250D02*
X460900Y462521D01*
X458711Y461614D01*
X456831Y460171D01*
X455388Y458291D01*
X454482Y456102D01*
X454172Y453753D01*
Y448753D01*
X454482Y446403D01*
X455388Y444214D01*
X456831Y442334D01*
X458711Y440891D01*
X460900Y439984D01*
X463250Y439675D01*
X465599Y439984D01*
X467789Y440891D01*
X469669Y442334D01*
X471111Y444214D01*
X472018Y446403D01*
X472328Y448753D01*
Y453753D01*
X472018Y456102D01*
X471111Y458291D01*
X469669Y460171D01*
X467789Y461614D01*
X465599Y462521D01*
X463250Y462830D01*
D02*
G37*
G36*
X443250D02*
X440900Y462521D01*
X438711Y461614D01*
X436831Y460171D01*
X435388Y458291D01*
X434482Y456102D01*
X434172Y453753D01*
Y448753D01*
X434482Y446403D01*
X435388Y444214D01*
X436831Y442334D01*
X438711Y440891D01*
X440900Y439984D01*
X443250Y439675D01*
X445599Y439984D01*
X447789Y440891D01*
X449669Y442334D01*
X451111Y444214D01*
X452018Y446403D01*
X452328Y448753D01*
Y453753D01*
X452018Y456102D01*
X451111Y458291D01*
X449669Y460171D01*
X447789Y461614D01*
X445599Y462521D01*
X443250Y462830D01*
D02*
G37*
G36*
X341397Y403617D02*
X339361Y403349D01*
X337464Y402563D01*
X335834Y401313D01*
X334584Y399684D01*
X333798Y397786D01*
X333530Y395750D01*
X333798Y393714D01*
X334584Y391816D01*
X335834Y390187D01*
X337464Y388937D01*
X339361Y388151D01*
X341397Y387883D01*
X343434Y388151D01*
X345331Y388937D01*
X346960Y390187D01*
X348211Y391816D01*
X348997Y393714D01*
X349265Y395750D01*
X348997Y397786D01*
X348211Y399684D01*
X346960Y401313D01*
X345331Y402563D01*
X343434Y403349D01*
X341397Y403617D01*
D02*
G37*
G36*
X888750Y424599D02*
X885748Y424204D01*
X882950Y423045D01*
X880548Y421202D01*
X878705Y418800D01*
X877546Y416002D01*
X877151Y413000D01*
X877546Y409998D01*
X878705Y407200D01*
X880548Y404798D01*
X882194Y403535D01*
Y351965D01*
X880548Y350702D01*
X878705Y348300D01*
X877546Y345502D01*
X877151Y342500D01*
X877546Y339498D01*
X878705Y336700D01*
X880548Y334298D01*
X882950Y332455D01*
X885748Y331296D01*
X888750Y330901D01*
X891752Y331296D01*
X894550Y332455D01*
X896952Y334298D01*
X898795Y336700D01*
X899954Y339498D01*
X900349Y342500D01*
X899954Y345502D01*
X898795Y348300D01*
X896952Y350702D01*
X895306Y351965D01*
Y403535D01*
X896952Y404798D01*
X898795Y407200D01*
X899954Y409998D01*
X900349Y413000D01*
X899954Y416002D01*
X898795Y418800D01*
X896952Y421202D01*
X894550Y423045D01*
X891752Y424204D01*
X888750Y424599D01*
D02*
G37*
G36*
X810750Y385599D02*
X807748Y385204D01*
X804950Y384045D01*
X802548Y382202D01*
X800705Y379800D01*
X799546Y377002D01*
X799151Y374000D01*
X799546Y370998D01*
X800705Y368200D01*
X802548Y365798D01*
X804194Y364535D01*
Y312965D01*
X802548Y311702D01*
X800705Y309300D01*
X799546Y306502D01*
X799151Y303500D01*
X799546Y300498D01*
X800705Y297700D01*
X802548Y295298D01*
X804950Y293455D01*
X807748Y292296D01*
X810750Y291901D01*
X813752Y292296D01*
X816550Y293455D01*
X818952Y295298D01*
X820795Y297700D01*
X821954Y300498D01*
X822349Y303500D01*
X821954Y306502D01*
X820795Y309300D01*
X818952Y311702D01*
X817306Y312965D01*
Y364535D01*
X818952Y365798D01*
X820795Y368200D01*
X821954Y370998D01*
X822349Y374000D01*
X821954Y377002D01*
X820795Y379800D01*
X818952Y382202D01*
X816550Y384045D01*
X813752Y385204D01*
X810750Y385599D01*
D02*
G37*
G36*
X888750Y285599D02*
X885748Y285204D01*
X882950Y284045D01*
X880548Y282202D01*
X878705Y279800D01*
X877546Y277002D01*
X877151Y274000D01*
X877546Y270998D01*
X878705Y268200D01*
X880548Y265798D01*
X882194Y264535D01*
Y212965D01*
X880548Y211702D01*
X878705Y209300D01*
X877546Y206502D01*
X877151Y203500D01*
X877546Y200498D01*
X878705Y197700D01*
X880548Y195298D01*
X882950Y193455D01*
X885748Y192296D01*
X888750Y191901D01*
X891752Y192296D01*
X894550Y193455D01*
X896952Y195298D01*
X898795Y197700D01*
X899954Y200498D01*
X900349Y203500D01*
X899954Y206502D01*
X898795Y209300D01*
X896952Y211702D01*
X895306Y212965D01*
Y264535D01*
X896952Y265798D01*
X898795Y268200D01*
X899954Y270998D01*
X900349Y274000D01*
X899954Y277002D01*
X898795Y279800D01*
X896952Y282202D01*
X894550Y284045D01*
X891752Y285204D01*
X888750Y285599D01*
D02*
G37*
G36*
X810750D02*
X807748Y285204D01*
X804950Y284045D01*
X802548Y282202D01*
X800705Y279800D01*
X799546Y277002D01*
X799151Y274000D01*
X799546Y270998D01*
X800705Y268200D01*
X802548Y265798D01*
X804194Y264535D01*
Y212965D01*
X802548Y211702D01*
X800705Y209300D01*
X799546Y206502D01*
X799151Y203500D01*
X799546Y200498D01*
X800705Y197700D01*
X802548Y195298D01*
X804950Y193455D01*
X807748Y192296D01*
X810750Y191901D01*
X813752Y192296D01*
X816550Y193455D01*
X818952Y195298D01*
X820795Y197700D01*
X821954Y200498D01*
X822349Y203500D01*
X821954Y206502D01*
X820795Y209300D01*
X818952Y211702D01*
X817306Y212965D01*
Y264535D01*
X818952Y265798D01*
X820795Y268200D01*
X821954Y270998D01*
X822349Y274000D01*
X821954Y277002D01*
X820795Y279800D01*
X818952Y282202D01*
X816550Y284045D01*
X813752Y285204D01*
X810750Y285599D01*
D02*
G37*
G36*
X695000Y164598D02*
X693049Y164210D01*
X691395Y163105D01*
X690290Y161451D01*
X689902Y159500D01*
X690030Y158856D01*
X684837Y153663D01*
X684174Y152670D01*
X683941Y151500D01*
X683941Y151500D01*
Y124720D01*
X683395Y124355D01*
X683030Y123809D01*
X670886D01*
X670855Y123855D01*
X669201Y124960D01*
X667250Y125348D01*
X665299Y124960D01*
X663645Y123855D01*
X662540Y122201D01*
X662152Y120250D01*
X662540Y118299D01*
X663645Y116645D01*
X665299Y115540D01*
X667250Y115152D01*
X669201Y115540D01*
X670855Y116645D01*
X671554Y117691D01*
X683030D01*
X683395Y117145D01*
X685049Y116040D01*
X687000Y115652D01*
X688951Y116040D01*
X690605Y117145D01*
X691710Y118799D01*
X692098Y120750D01*
X691710Y122701D01*
X690605Y124355D01*
X690059Y124720D01*
Y150233D01*
X694356Y154530D01*
X695000Y154402D01*
X696951Y154790D01*
X698605Y155895D01*
X699710Y157549D01*
X700098Y159500D01*
X699710Y161451D01*
X698605Y163105D01*
X696951Y164210D01*
X695000Y164598D01*
D02*
G37*
G36*
X527500Y163328D02*
X522500D01*
X520150Y163018D01*
X517961Y162111D01*
X516081Y160669D01*
X514638Y158789D01*
X513732Y156600D01*
X513422Y154250D01*
X513732Y151901D01*
X514638Y149711D01*
X516081Y147831D01*
X517961Y146389D01*
X520150Y145482D01*
X522500Y145172D01*
X527500D01*
X529850Y145482D01*
X532039Y146389D01*
X533919Y147831D01*
X535362Y149711D01*
X536268Y151901D01*
X536578Y154250D01*
X536268Y156600D01*
X535362Y158789D01*
X533919Y160669D01*
X532039Y162111D01*
X529850Y163018D01*
X527500Y163328D01*
D02*
G37*
G36*
X654750Y329848D02*
X652799Y329460D01*
X651145Y328355D01*
X650040Y326701D01*
X649818Y325586D01*
X634116Y309884D01*
X633232Y308561D01*
X632922Y307000D01*
X632922Y307000D01*
Y204439D01*
X566811Y138328D01*
X535552D01*
X535362Y138789D01*
X533919Y140669D01*
X532039Y142112D01*
X529850Y143018D01*
X527500Y143328D01*
X522500D01*
X520150Y143018D01*
X517961Y142112D01*
X516081Y140669D01*
X514638Y138789D01*
X513732Y136600D01*
X513422Y134250D01*
X513732Y131901D01*
X514638Y129711D01*
X516081Y127831D01*
X517961Y126389D01*
X520150Y125482D01*
X522500Y125172D01*
X527500D01*
X529850Y125482D01*
X532039Y126389D01*
X533919Y127831D01*
X535362Y129711D01*
X535552Y130172D01*
X568500D01*
X568500Y130172D01*
X570061Y130482D01*
X571384Y131366D01*
X639884Y199866D01*
X639884Y199866D01*
X640768Y201189D01*
X641078Y202750D01*
X641078Y202750D01*
Y305311D01*
X655586Y319818D01*
X656701Y320040D01*
X658355Y321145D01*
X659460Y322799D01*
X659848Y324750D01*
X659460Y326701D01*
X658355Y328355D01*
X656701Y329460D01*
X654750Y329848D01*
D02*
G37*
G36*
X855750Y385599D02*
X852748Y385204D01*
X849950Y384045D01*
X847548Y382202D01*
X845705Y379800D01*
X844546Y377002D01*
X844151Y374000D01*
X844546Y370998D01*
X845705Y368200D01*
X847548Y365798D01*
X849194Y364535D01*
Y312965D01*
X847548Y311702D01*
X845705Y309300D01*
X844546Y306502D01*
X844151Y303500D01*
X844546Y300498D01*
X845705Y297700D01*
X847548Y295298D01*
X849194Y294035D01*
Y283465D01*
X847548Y282202D01*
X845705Y279800D01*
X844546Y277002D01*
X844151Y274000D01*
X844546Y270998D01*
X845705Y268200D01*
X847548Y265798D01*
X849194Y264535D01*
Y212965D01*
X847548Y211702D01*
X845705Y209300D01*
X844546Y206502D01*
X844151Y203500D01*
X844546Y200498D01*
X845705Y197700D01*
X847548Y195298D01*
X849194Y194035D01*
Y183465D01*
X847548Y182202D01*
X845705Y179800D01*
X844546Y177002D01*
X844151Y174000D01*
X844546Y170998D01*
X845705Y168200D01*
X847548Y165798D01*
X849194Y164535D01*
Y112965D01*
X847548Y111702D01*
X845705Y109300D01*
X844546Y106502D01*
X844151Y103500D01*
X844546Y100498D01*
X845705Y97700D01*
X847548Y95298D01*
X849950Y93455D01*
X852748Y92296D01*
X855750Y91901D01*
X858752Y92296D01*
X861550Y93455D01*
X863952Y95298D01*
X865795Y97700D01*
X866954Y100498D01*
X867349Y103500D01*
X866954Y106502D01*
X865795Y109300D01*
X863952Y111702D01*
X862306Y112965D01*
Y164535D01*
X863952Y165798D01*
X865795Y168200D01*
X866954Y170998D01*
X867349Y174000D01*
X866954Y177002D01*
X865795Y179800D01*
X863952Y182202D01*
X862306Y183465D01*
Y194035D01*
X863952Y195298D01*
X865795Y197700D01*
X866954Y200498D01*
X867349Y203500D01*
X866954Y206502D01*
X865795Y209300D01*
X863952Y211702D01*
X862306Y212965D01*
Y264535D01*
X863952Y265798D01*
X865795Y268200D01*
X866954Y270998D01*
X867349Y274000D01*
X866954Y277002D01*
X865795Y279800D01*
X863952Y282202D01*
X862306Y283465D01*
Y294035D01*
X863952Y295298D01*
X865795Y297700D01*
X866954Y300498D01*
X867349Y303500D01*
X866954Y306502D01*
X865795Y309300D01*
X863952Y311702D01*
X862306Y312965D01*
Y364535D01*
X863952Y365798D01*
X865795Y368200D01*
X866954Y370998D01*
X867349Y374000D01*
X866954Y377002D01*
X865795Y379800D01*
X863952Y382202D01*
X861550Y384045D01*
X858752Y385204D01*
X855750Y385599D01*
D02*
G37*
G36*
X743750Y79348D02*
X741799Y78960D01*
X740145Y77855D01*
X739040Y76201D01*
X738652Y74250D01*
X739040Y72299D01*
X740145Y70645D01*
X740691Y70280D01*
Y54500D01*
X740691Y54500D01*
X740924Y53329D01*
X741587Y52337D01*
X757530Y36394D01*
X757402Y35750D01*
X757790Y33799D01*
X758895Y32145D01*
X760549Y31040D01*
X762500Y30652D01*
X764451Y31040D01*
X766105Y32145D01*
X767210Y33799D01*
X767598Y35750D01*
X767210Y37701D01*
X766105Y39355D01*
X764451Y40460D01*
X762500Y40848D01*
X761856Y40720D01*
X746809Y55767D01*
Y70280D01*
X747355Y70645D01*
X748460Y72299D01*
X748848Y74250D01*
X748460Y76201D01*
X747355Y77855D01*
X745701Y78960D01*
X743750Y79348D01*
D02*
G37*
G36*
X619400Y55249D02*
X616398Y54854D01*
X613600Y53695D01*
X611198Y51852D01*
X609355Y49450D01*
X608196Y46652D01*
X607801Y43650D01*
Y33650D01*
X608196Y30648D01*
X609355Y27850D01*
X611198Y25448D01*
X613600Y23605D01*
X616398Y22446D01*
X619400Y22051D01*
X622402Y22446D01*
X625200Y23605D01*
X627602Y25448D01*
X629445Y27850D01*
X630604Y30648D01*
X630999Y33650D01*
Y43650D01*
X630604Y46652D01*
X629445Y49450D01*
X627602Y51852D01*
X625200Y53695D01*
X622402Y54854D01*
X619400Y55249D01*
D02*
G37*
G36*
X594000D02*
X590998Y54854D01*
X588200Y53695D01*
X585798Y51852D01*
X583955Y49450D01*
X582796Y46652D01*
X582401Y43650D01*
Y33650D01*
X582796Y30648D01*
X583955Y27850D01*
X585798Y25448D01*
X588200Y23605D01*
X590998Y22446D01*
X594000Y22051D01*
X597002Y22446D01*
X599800Y23605D01*
X602202Y25448D01*
X604045Y27850D01*
X605204Y30648D01*
X605599Y33650D01*
Y43650D01*
X605204Y46652D01*
X604045Y49450D01*
X602202Y51852D01*
X599800Y53695D01*
X597002Y54854D01*
X594000Y55249D01*
D02*
G37*
G36*
X568600D02*
X565598Y54854D01*
X562800Y53695D01*
X560398Y51852D01*
X558555Y49450D01*
X557396Y46652D01*
X557001Y43650D01*
Y33650D01*
X557396Y30648D01*
X558555Y27850D01*
X560398Y25448D01*
X562800Y23605D01*
X565598Y22446D01*
X568600Y22051D01*
X571602Y22446D01*
X574400Y23605D01*
X576802Y25448D01*
X578645Y27850D01*
X579804Y30648D01*
X580199Y33650D01*
Y43650D01*
X579804Y46652D01*
X578645Y49450D01*
X576802Y51852D01*
X574400Y53695D01*
X571602Y54854D01*
X568600Y55249D01*
D02*
G37*
G36*
X543200D02*
X540198Y54854D01*
X537400Y53695D01*
X534998Y51852D01*
X533155Y49450D01*
X531996Y46652D01*
X531601Y43650D01*
Y33650D01*
X531996Y30648D01*
X533155Y27850D01*
X534998Y25448D01*
X537400Y23605D01*
X540198Y22446D01*
X543200Y22051D01*
X546202Y22446D01*
X549000Y23605D01*
X551402Y25448D01*
X553245Y27850D01*
X554404Y30648D01*
X554799Y33650D01*
Y43650D01*
X554404Y46652D01*
X553245Y49450D01*
X551402Y51852D01*
X549000Y53695D01*
X546202Y54854D01*
X543200Y55249D01*
D02*
G37*
G36*
X517800D02*
X514798Y54854D01*
X512000Y53695D01*
X509598Y51852D01*
X507755Y49450D01*
X506596Y46652D01*
X506201Y43650D01*
Y33650D01*
X506596Y30648D01*
X507755Y27850D01*
X509598Y25448D01*
X512000Y23605D01*
X514798Y22446D01*
X517800Y22051D01*
X520802Y22446D01*
X523600Y23605D01*
X526002Y25448D01*
X527845Y27850D01*
X529004Y30648D01*
X529399Y33650D01*
Y43650D01*
X529004Y46652D01*
X527845Y49450D01*
X526002Y51852D01*
X523600Y53695D01*
X520802Y54854D01*
X517800Y55249D01*
D02*
G37*
G36*
X441600D02*
X438598Y54854D01*
X435800Y53695D01*
X433398Y51852D01*
X431555Y49450D01*
X430396Y46652D01*
X430001Y43650D01*
Y33650D01*
X430396Y30648D01*
X431555Y27850D01*
X433398Y25448D01*
X435800Y23605D01*
X438598Y22446D01*
X441600Y22051D01*
X444602Y22446D01*
X447400Y23605D01*
X449802Y25448D01*
X451645Y27850D01*
X452804Y30648D01*
X453199Y33650D01*
Y43650D01*
X452804Y46652D01*
X451645Y49450D01*
X449802Y51852D01*
X447400Y53695D01*
X444602Y54854D01*
X441600Y55249D01*
D02*
G37*
G36*
X263800D02*
X260798Y54854D01*
X258000Y53695D01*
X255598Y51852D01*
X253755Y49450D01*
X252596Y46652D01*
X252201Y43650D01*
Y33650D01*
X252596Y30648D01*
X253755Y27850D01*
X255598Y25448D01*
X258000Y23605D01*
X260798Y22446D01*
X263800Y22051D01*
X266802Y22446D01*
X269600Y23605D01*
X272002Y25448D01*
X273845Y27850D01*
X275004Y30648D01*
X275399Y33650D01*
Y43650D01*
X275004Y46652D01*
X273845Y49450D01*
X272002Y51852D01*
X269600Y53695D01*
X266802Y54854D01*
X263800Y55249D01*
D02*
G37*
G36*
X900000Y86578D02*
X895226Y86265D01*
X890533Y85332D01*
X886002Y83794D01*
X881711Y81678D01*
X877732Y79019D01*
X874135Y75865D01*
X870981Y72267D01*
X868322Y68289D01*
X866206Y63998D01*
X864668Y59467D01*
X863735Y54774D01*
X863422Y50000D01*
X863735Y45226D01*
X864668Y40533D01*
X866206Y36002D01*
X868322Y31711D01*
X870981Y27733D01*
X874135Y24135D01*
X877732Y20981D01*
X881711Y18322D01*
X886002Y16206D01*
X890533Y14668D01*
X895226Y13735D01*
X900000Y13422D01*
X904774Y13735D01*
X909467Y14668D01*
X913998Y16206D01*
X918289Y18322D01*
X922268Y20981D01*
X925865Y24135D01*
X929019Y27733D01*
X931678Y31711D01*
X933794Y36002D01*
X935332Y40533D01*
X936265Y45226D01*
X936578Y50000D01*
X936265Y54774D01*
X935332Y59467D01*
X933794Y63998D01*
X931678Y68289D01*
X929019Y72267D01*
X925865Y75865D01*
X922268Y79019D01*
X918289Y81678D01*
X913998Y83794D01*
X909467Y85332D01*
X904774Y86265D01*
X900000Y86578D01*
D02*
G37*
G36*
X243750Y523330D02*
X240515Y523011D01*
X237405Y522068D01*
X234539Y520536D01*
X232026Y518474D01*
X229964Y515961D01*
X228432Y513095D01*
X227489Y509985D01*
X227170Y506750D01*
X227489Y503515D01*
X228432Y500405D01*
X229964Y497539D01*
X232026Y495026D01*
X234539Y492964D01*
X237405Y491432D01*
X240515Y490489D01*
X243750Y490170D01*
X246985Y490489D01*
X250095Y491432D01*
X252961Y492964D01*
X255474Y495026D01*
X257536Y497539D01*
X259068Y500405D01*
X260011Y503515D01*
X260330Y506750D01*
X260011Y509985D01*
X259068Y513095D01*
X257536Y515961D01*
X255474Y518474D01*
X252961Y520536D01*
X250095Y522068D01*
X246985Y523011D01*
X243750Y523330D01*
D02*
G37*
G36*
X169500D02*
X166266Y523011D01*
X163155Y522068D01*
X160289Y520536D01*
X157776Y518474D01*
X155714Y515961D01*
X154182Y513095D01*
X153239Y509985D01*
X152920Y506750D01*
X153239Y503515D01*
X154182Y500405D01*
X155714Y497539D01*
X157776Y495026D01*
X160289Y492964D01*
X163155Y491432D01*
X166266Y490489D01*
X169500Y490170D01*
X172735Y490489D01*
X175845Y491432D01*
X178711Y492964D01*
X181224Y495026D01*
X183286Y497539D01*
X184818Y500405D01*
X185761Y503515D01*
X186080Y506750D01*
X185761Y509985D01*
X184818Y513095D01*
X183286Y515961D01*
X181224Y518474D01*
X178711Y520536D01*
X175845Y522068D01*
X172735Y523011D01*
X169500Y523330D01*
D02*
G37*
G36*
X88397Y480000D02*
X75147D01*
Y464250D01*
X88397D01*
Y480000D01*
D02*
G37*
G36*
X20147D02*
Y464250D01*
X33397D01*
Y480000D01*
X20147D01*
D02*
G37*
G36*
X73647D02*
X60397D01*
Y464250D01*
X73647D01*
Y480000D01*
D02*
G37*
G36*
X88397Y462750D02*
X75147D01*
Y447000D01*
X88397D01*
Y462750D01*
D02*
G37*
G36*
X73647D02*
X60397D01*
Y447000D01*
X73647D01*
Y462750D01*
D02*
G37*
G36*
X33397D02*
X20147D01*
Y447000D01*
X33397D01*
Y462750D01*
D02*
G37*
G36*
X90897Y401750D02*
X75147D01*
Y398500D01*
X90897D01*
Y401750D01*
D02*
G37*
G36*
X73647D02*
X57897D01*
Y398500D01*
X73647D01*
Y401750D01*
D02*
G37*
G36*
X49397Y402552D02*
X47831Y402346D01*
X46371Y401741D01*
X45118Y400779D01*
X44156Y399526D01*
X43552Y398066D01*
X43346Y396500D01*
X43552Y394934D01*
X44156Y393474D01*
X45118Y392221D01*
X46371Y391259D01*
X47831Y390654D01*
X49397Y390448D01*
X50964Y390654D01*
X52423Y391259D01*
X53677Y392221D01*
X54638Y393474D01*
X55243Y394934D01*
X55449Y396500D01*
X55243Y398066D01*
X54638Y399526D01*
X53677Y400779D01*
X52423Y401741D01*
X50964Y402346D01*
X49397Y402552D01*
D02*
G37*
G36*
X88397Y390000D02*
X75147D01*
Y374250D01*
X88397D01*
Y390000D01*
D02*
G37*
G36*
X20147D02*
Y374250D01*
X33397D01*
Y390000D01*
X20147D01*
D02*
G37*
G36*
X73647D02*
X60397D01*
Y374250D01*
X73647D01*
Y390000D01*
D02*
G37*
G36*
X140750Y370098D02*
X138799Y369710D01*
X137145Y368605D01*
X136780Y368059D01*
X113000D01*
X113000Y368059D01*
X111830Y367826D01*
X110837Y367163D01*
X110837Y367163D01*
X95559Y351885D01*
X93951Y352960D01*
X92000Y353348D01*
X90049Y352960D01*
X88395Y351855D01*
X88030Y351309D01*
X57220D01*
X56855Y351855D01*
X55201Y352960D01*
X53250Y353348D01*
X51299Y352960D01*
X49645Y351855D01*
X48540Y350201D01*
X48152Y348250D01*
X48540Y346299D01*
X49645Y344645D01*
X51299Y343540D01*
X53250Y343152D01*
X55201Y343540D01*
X56855Y344645D01*
X57220Y345191D01*
X88030D01*
X88395Y344645D01*
X90049Y343540D01*
X92000Y343152D01*
X93951Y343540D01*
X95605Y344645D01*
X95970Y345191D01*
X96250D01*
X96250Y345191D01*
X97421Y345424D01*
X98413Y346087D01*
X108556Y356230D01*
X109991Y355795D01*
X110040Y355549D01*
X111145Y353895D01*
X111691Y353530D01*
Y343720D01*
X111145Y343355D01*
X110040Y341701D01*
X109652Y339750D01*
X110040Y337799D01*
X111145Y336145D01*
X112799Y335040D01*
X114750Y334652D01*
X116701Y335040D01*
X118355Y336145D01*
X119460Y337799D01*
X119848Y339750D01*
X119460Y341701D01*
X118355Y343355D01*
X117809Y343720D01*
Y353530D01*
X118355Y353895D01*
X119460Y355549D01*
X119848Y357500D01*
X119460Y359451D01*
X118798Y360441D01*
X119597Y361941D01*
X136780D01*
X137145Y361395D01*
X138799Y360290D01*
X140750Y359902D01*
X142701Y360290D01*
X144355Y361395D01*
X145460Y363049D01*
X145848Y365000D01*
X145460Y366951D01*
X144355Y368605D01*
X142701Y369710D01*
X140750Y370098D01*
D02*
G37*
G36*
X88397Y372750D02*
X75147D01*
Y357000D01*
X88397D01*
Y372750D01*
D02*
G37*
G36*
X73647D02*
X60397D01*
Y357000D01*
X73647D01*
Y372750D01*
D02*
G37*
G36*
X33397D02*
X20147D01*
Y357000D01*
X33397D01*
Y372750D01*
D02*
G37*
G36*
X19750Y330319D02*
X17000D01*
Y323000D01*
X27720D01*
X27544Y324338D01*
X26738Y326284D01*
X25456Y327956D01*
X23784Y329238D01*
X21838Y330044D01*
X19750Y330319D01*
D02*
G37*
G36*
X27720Y321500D02*
X17000D01*
Y314181D01*
X19750D01*
X21838Y314456D01*
X23784Y315262D01*
X25456Y316544D01*
X26738Y318216D01*
X27544Y320162D01*
X27720Y321500D01*
D02*
G37*
G36*
X377250Y240598D02*
X375299Y240210D01*
X374354Y239578D01*
X350500D01*
X348939Y239268D01*
X347616Y238384D01*
X347616Y238384D01*
X325561Y216328D01*
X272646D01*
X271701Y216960D01*
X269750Y217348D01*
X267799Y216960D01*
X266145Y215855D01*
X265040Y214201D01*
X264652Y212250D01*
X265040Y210299D01*
X266145Y208645D01*
X267799Y207540D01*
X269750Y207152D01*
X271701Y207540D01*
X272646Y208172D01*
X327250D01*
X327250Y208172D01*
X328811Y208482D01*
X330134Y209366D01*
X352189Y231422D01*
X374354D01*
X375299Y230790D01*
X377250Y230402D01*
X379201Y230790D01*
X380855Y231895D01*
X381960Y233549D01*
X382348Y235500D01*
X381960Y237451D01*
X380855Y239105D01*
X379201Y240210D01*
X377250Y240598D01*
D02*
G37*
%LPD*%
D10*
X74397Y373500D02*
D03*
X19397D02*
D03*
Y463500D02*
D03*
X74397D02*
D03*
D11*
Y402500D02*
D03*
Y410500D02*
D03*
Y418500D02*
D03*
Y426500D02*
D03*
Y434500D02*
D03*
D12*
X130750Y231750D02*
X173750D01*
X177750Y235750D01*
X233000Y164250D02*
X258521D01*
X263513Y159258D01*
X187750Y167750D02*
X305273D01*
X182500Y171250D02*
X314250D01*
X180500Y174750D02*
X310265D01*
X185500Y178250D02*
X308750D01*
X182700Y310250D02*
X256350Y236600D01*
X370150Y18000D02*
X390800Y38650D01*
X302100Y28472D02*
X312572Y18000D01*
X370150D01*
X325000Y85250D02*
X331500D01*
X302100Y62350D02*
X325000Y85250D01*
X319250Y101750D02*
X566500D01*
X288750Y143985D02*
X313250Y119485D01*
X288750Y143985D02*
Y153000D01*
X313250Y107750D02*
X319250Y101750D01*
X313250Y107750D02*
Y119485D01*
X74397Y426500D02*
X87500D01*
X74397Y418500D02*
X102250D01*
X334250Y130750D02*
X342250Y138750D01*
X318250Y130750D02*
X334250D01*
X248500Y160750D02*
X254000Y155250D01*
X234450Y160750D02*
X248500D01*
X213950Y140250D02*
X234450Y160750D01*
X212500Y143750D02*
X233000Y164250D01*
Y118500D02*
X291750D01*
X214750Y136750D02*
X233000Y118500D01*
X144950Y136750D02*
X214750D01*
X231000Y115000D02*
X270250D01*
X212750Y133250D02*
X231000Y115000D01*
X143500Y133250D02*
X212750D01*
X146399Y140250D02*
X213950D01*
X147849Y143750D02*
X212500D01*
X315515Y194500D02*
X320485D01*
X311015Y190000D02*
X315515Y194500D01*
X391300Y289950D02*
X401750Y279500D01*
Y220750D02*
Y279500D01*
X395250Y214250D02*
X401750Y220750D01*
X286500Y289950D02*
X391300D01*
X391500Y219557D02*
Y255700D01*
X375250Y271950D02*
X391500Y255700D01*
X299550Y271950D02*
X375250D01*
X198000Y373500D02*
X299550Y271950D01*
X378535Y205000D02*
X394485D01*
X373535Y200000D02*
X378535Y205000D01*
X361750Y200000D02*
X373535D01*
X579200Y94000D02*
X782000D01*
X567950Y105250D02*
X579200Y94000D01*
X377250Y105250D02*
X567950D01*
X583250Y444500D02*
Y451253D01*
X569250Y430500D02*
X583250Y444500D01*
X454750Y430500D02*
X569250D01*
X205000Y376399D02*
Y529500D01*
X200500Y534000D02*
X205000Y529500D01*
X184500Y534000D02*
X200500D01*
X96500Y506500D02*
X100235D01*
X152250Y494250D02*
X201500Y445000D01*
X112485Y494250D02*
X152250D01*
X100235Y506500D02*
X112485Y494250D01*
X198000Y373500D02*
Y443250D01*
X201500Y374950D02*
Y445000D01*
X208500Y377849D02*
Y532250D01*
X150500Y490750D02*
X198000Y443250D01*
X708650Y366900D02*
X716250Y359300D01*
Y285550D02*
Y359300D01*
Y285550D02*
X720250Y281550D01*
X710100Y370400D02*
X719750Y360750D01*
Y287000D02*
Y360750D01*
Y287000D02*
X732750Y274000D01*
X697250Y347015D02*
X703500Y340765D01*
Y338750D02*
Y340765D01*
X697250Y347015D02*
Y350550D01*
X691400Y356400D02*
X697250Y350550D01*
X511550Y356400D02*
X691400D01*
X692850Y359900D02*
X703250Y349500D01*
X510100Y359900D02*
X692850D01*
X931250Y386500D02*
X933750Y389000D01*
X908000Y386500D02*
X931250D01*
X793750Y191000D02*
X810750Y174000D01*
X727572Y191000D02*
X793750D01*
X720250Y198322D02*
X727572Y191000D01*
X720250Y198322D02*
Y281550D01*
X731500Y374000D02*
X732750Y375250D01*
X426300Y170750D02*
X484500Y228950D01*
X391250Y170750D02*
X426300D01*
X371500Y151000D02*
X391250Y170750D01*
X424851Y174250D02*
X481000Y230399D01*
X389800Y174250D02*
X424851D01*
X368000Y152450D02*
X389800Y174250D01*
X423401Y177750D02*
X477500Y231849D01*
X388351Y177750D02*
X423401D01*
X364500Y153899D02*
X388351Y177750D01*
X421951Y181250D02*
X474000Y233299D01*
X386901Y181250D02*
X421951D01*
X361000Y155349D02*
X386901Y181250D01*
X434099Y160000D02*
X505500Y231401D01*
X385450Y160000D02*
X434099D01*
X377500Y152050D02*
X385450Y160000D01*
X509000Y244792D02*
Y259842D01*
X505500Y241292D02*
X509000Y244792D01*
X505500Y231401D02*
Y241292D01*
X512250Y301500D02*
X525000Y314250D01*
X512250Y263092D02*
Y301500D01*
X509000Y259842D02*
X512250Y263092D01*
X512500Y258392D02*
X523554Y269446D01*
X512500Y243342D02*
Y258392D01*
X516000Y254250D02*
X525000D01*
X504250Y374000D02*
X731500D01*
X467000Y336750D02*
X504250Y374000D01*
X484500Y329351D02*
X511550Y356400D01*
X484500Y228950D02*
Y329351D01*
X481000Y330800D02*
X510100Y359900D01*
X487375Y342125D02*
X508650Y363400D01*
X507050Y366900D02*
X708650D01*
X474000Y333851D02*
X507050Y366900D01*
X505600Y370400D02*
X710100D01*
X470500Y335300D02*
X505600Y370400D01*
X512500Y238392D02*
X516000Y241892D01*
X518750Y274250D02*
X525000D01*
X523392Y292500D02*
X537500Y278392D01*
X414993Y143257D02*
X432206D01*
X508790Y219842D02*
X509000D01*
X432206Y143257D02*
X508790Y219842D01*
X509000Y239842D02*
X512500Y243342D01*
X509000Y201546D02*
X512500Y205046D01*
Y218392D01*
X523408Y234250D02*
X525000D01*
X509000Y219842D02*
X523408Y234250D01*
X518358Y224250D02*
X531642D01*
X512500Y218392D02*
X518358Y224250D01*
X509000Y229951D02*
Y239842D01*
X432556Y153507D02*
X509000Y229951D01*
X512500Y228501D02*
Y238392D01*
X430756Y146757D02*
X512500Y228501D01*
X509000Y188150D02*
Y201546D01*
X505500Y184650D02*
X509000Y188150D01*
X505500Y175599D02*
Y184650D01*
X454151Y124250D02*
X505500Y175599D01*
X429021Y153507D02*
X432556D01*
X423521Y146757D02*
X430756D01*
X421021Y149257D02*
X423521Y146757D01*
X412750Y145500D02*
X414993Y143257D01*
X361000Y144000D02*
Y155349D01*
X355750Y138750D02*
X361000Y144000D01*
X342250Y138750D02*
X355750D01*
X364500Y142000D02*
Y153899D01*
X355000Y132500D02*
X364500Y142000D01*
X368000Y136500D02*
Y152450D01*
X364000Y132500D02*
X368000Y136500D01*
X377500Y147250D02*
Y152050D01*
X395935Y201500D02*
X408750Y214315D01*
X317390Y151140D02*
X321265Y155015D01*
Y160558D01*
X325000Y152000D02*
Y159343D01*
X315250Y142250D02*
X325000Y152000D01*
Y159343D02*
X336907Y171250D01*
X359635D01*
X382885Y194500D02*
X398834D01*
X359635Y171250D02*
X382885Y194500D01*
X335457Y174750D02*
X358185D01*
X321265Y160558D02*
X335457Y174750D01*
X381435Y198000D02*
X397385D01*
X358185Y174750D02*
X381435Y198000D01*
X315265Y151007D02*
Y153265D01*
X379985Y201500D02*
X395935D01*
X356735Y178250D02*
X379985Y201500D01*
X334008Y178250D02*
X356735D01*
X315265Y159508D02*
X334008Y178250D01*
X481000Y230399D02*
Y330800D01*
X477500Y332250D02*
X487375Y342125D01*
X477500Y332250D02*
X477500Y332250D01*
X477500Y231849D02*
Y332250D01*
X474000Y233299D02*
Y333851D01*
X470500Y234800D02*
Y335300D01*
X467000Y236250D02*
Y336750D01*
X444000Y213250D02*
X467000Y236250D01*
X445450Y209750D02*
X470500Y234800D01*
X371500Y134000D02*
Y151000D01*
Y134000D02*
X373250Y132250D01*
X354250Y124250D02*
X454151D01*
X363500Y120750D02*
X455601D01*
X355250Y112500D02*
X363500Y120750D01*
X346000Y132500D02*
X354250Y124250D01*
X414085Y209750D02*
X445450D01*
X398834Y194500D02*
X414085Y209750D01*
X397385Y198000D02*
X412635Y213250D01*
X444000D01*
X525000Y294250D02*
X526750Y292500D01*
X537500Y230108D02*
Y278392D01*
X531642Y224250D02*
X537500Y230108D01*
X512500Y172700D02*
Y181750D01*
X509000Y174149D02*
Y183200D01*
X373800Y268450D02*
X388000Y254250D01*
X353961Y213761D02*
X385704D01*
X346750Y206550D02*
X353961Y213761D01*
X346750Y199500D02*
Y206550D01*
X352511Y217261D02*
X384254D01*
X335250Y200000D02*
X352511Y217261D01*
X405250Y215765D02*
Y280950D01*
X394485Y205000D02*
X405250Y215765D01*
X287950Y293450D02*
X392750D01*
X289399Y296950D02*
X394200D01*
X392750Y293450D02*
X405250Y280950D01*
X394200Y296950D02*
X408750Y282400D01*
X512500Y186700D02*
Y200096D01*
X509000Y183200D02*
X512500Y186700D01*
X525000Y212596D02*
Y214250D01*
X512500Y200096D02*
X525000Y212596D01*
X455601Y120750D02*
X509000Y174149D01*
X458500Y113750D02*
X519000Y174250D01*
X395000Y113750D02*
X458500D01*
X392500Y111250D02*
X395000Y113750D01*
X512500Y181750D02*
X525000Y194250D01*
X457050Y117250D02*
X512500Y172700D01*
X390015Y117250D02*
X457050D01*
X384020Y111255D02*
X390015Y117250D01*
X381019Y111255D02*
X384020D01*
X519000Y174250D02*
X525000D01*
X425000Y235000D02*
Y400750D01*
X388000Y221007D02*
Y254250D01*
X384254Y217261D02*
X388000Y221007D01*
X385704Y213761D02*
X391500Y219557D01*
X370000Y112500D02*
X377250Y105250D01*
X408750Y214315D02*
Y282400D01*
X320485Y194500D02*
X330735Y184250D01*
X354250D01*
X296015Y190000D02*
X311015D01*
X293515Y192500D02*
X296015Y190000D01*
X267050Y192500D02*
X293515D01*
X252850Y206700D02*
X267050Y192500D01*
X252850Y206700D02*
Y235150D01*
X248625Y239375D02*
X252850Y235150D01*
X315265Y159508D02*
X315523Y159250D01*
X305273Y167750D02*
X308265Y164758D01*
X262200Y268450D02*
X373800D01*
X316500Y229500D02*
X319000Y232000D01*
X296200Y229500D02*
X316500D01*
X103700Y422000D02*
X296200Y229500D01*
X319266Y240512D02*
X325000Y234777D01*
Y229515D02*
Y234777D01*
X321485Y226000D02*
X325000Y229515D01*
X294750Y226000D02*
X321485D01*
X102250Y418500D02*
X294750Y226000D01*
X268500Y196000D02*
X298500D01*
X256350Y208150D02*
X268500Y196000D01*
X256350Y208150D02*
Y236600D01*
X341250Y62800D02*
X365400Y38650D01*
X341250Y62800D02*
Y69250D01*
X365500Y62500D02*
X392350D01*
X416200Y38650D01*
X270250Y115000D02*
X275750Y109500D01*
X566500Y101750D02*
X582250Y86000D01*
X782000Y94000D02*
X791000Y85000D01*
Y66000D02*
Y85000D01*
X302100Y28472D02*
Y62350D01*
X23250Y406750D02*
X27000Y410500D01*
X74397D01*
X116250Y160500D02*
Y255750D01*
X125000Y253750D02*
Y255500D01*
X119750Y248500D02*
X125000Y253750D01*
X119750Y161950D02*
Y248500D01*
X87500Y426500D02*
X92000Y422000D01*
X62750Y312500D02*
X68500Y306750D01*
X181250D01*
X314250Y171250D02*
X314750Y170750D01*
X177750Y177500D02*
X180500Y174750D01*
X177750Y166500D02*
X182500Y171250D01*
X308750Y178250D02*
X318000Y187500D01*
Y188500D01*
X310265Y174750D02*
X316015Y180500D01*
X325250D01*
X177750Y155500D02*
Y157750D01*
X180250Y183500D02*
Y197000D01*
X177750Y199500D02*
X180250Y197000D01*
X177750Y221500D02*
X224022D01*
X247762Y197760D01*
X177750Y157750D02*
X187750Y167750D01*
X180250Y183500D02*
X185500Y178250D01*
X201500Y374950D02*
X286500Y289950D01*
X205000Y376399D02*
X287950Y293450D01*
X208500Y377849D02*
X289399Y296950D01*
X297250Y546500D02*
X309750Y534000D01*
X208500Y532250D02*
X222750Y546500D01*
X297250D01*
X425000Y400750D02*
X454750Y430500D01*
X116250Y160500D02*
X143500Y133250D01*
X119750Y161950D02*
X144950Y136750D01*
X123250Y163399D02*
X146399Y140250D01*
X123250Y163399D02*
Y224250D01*
X130750Y231750D01*
X129250Y162349D02*
X147849Y143750D01*
X129250Y162349D02*
Y167500D01*
X41750Y221000D02*
Y364000D01*
X42000Y364250D01*
X92000Y422000D02*
X103700D01*
X197000Y333649D02*
Y342000D01*
X181250Y306750D02*
X215000Y273000D01*
X77250Y312750D02*
X79750Y310250D01*
X182700D01*
X215000Y273000D02*
X248625Y239375D01*
X197000Y333649D02*
X262200Y268450D01*
X107500Y490750D02*
X150500D01*
X523392Y292500D02*
X526750D01*
X518750Y274250D02*
X523554Y269446D01*
X315265Y153265D02*
X317390Y151140D01*
X516000Y241892D02*
Y254250D01*
X697950Y359750D02*
X703250D01*
X508650Y363400D02*
X694300D01*
X697950Y359750D01*
D13*
X230511Y270489D02*
Y271013D01*
X246500Y92250D02*
X384893D01*
X179000Y354000D02*
X194000D01*
X100500Y432500D02*
X179000Y354000D01*
X100500Y432500D02*
Y479250D01*
X637000Y307000D02*
X654750Y324750D01*
X637000Y202750D02*
Y307000D01*
X568500Y134250D02*
X637000Y202750D01*
X663000Y385000D02*
Y500900D01*
X662900Y501000D02*
X663000Y500900D01*
X607150Y556750D02*
X662900Y501000D01*
X712250D02*
X759250Y548000D01*
X662900Y501000D02*
X712250D01*
X200250Y547250D02*
X209750Y556750D01*
X525000Y134250D02*
X568500D01*
X167750Y315250D02*
X185750D01*
X128250Y354750D02*
X167750Y315250D01*
X154750Y284000D02*
X158250Y287500D01*
X106750Y284000D02*
X154750D01*
X90500Y267750D02*
X106750Y284000D01*
X209750Y556750D02*
X607150D01*
X16000Y343250D02*
Y370103D01*
X705784Y9750D02*
X709785Y13751D01*
X111488Y9750D02*
X705784D01*
X327250Y212250D02*
X350500Y235500D01*
X377250D01*
X269750Y212250D02*
X327250D01*
X241000Y86750D02*
X246500Y92250D01*
X114500Y86750D02*
X241000D01*
X181250Y272000D02*
X208250Y245000D01*
X115250Y272000D02*
X181250D01*
X101750Y258500D02*
X115250Y272000D01*
X101750Y99500D02*
Y258500D01*
Y99500D02*
X114500Y86750D01*
X384893Y92250D02*
X393143Y84000D01*
X447050D01*
X492400Y38650D01*
X815000Y548000D02*
X829000Y534000D01*
X759250Y548000D02*
X815000D01*
X90500Y30738D02*
X111488Y9750D01*
X55418Y434500D02*
X74397D01*
X52918Y432000D02*
X55418Y434500D01*
X45876Y432000D02*
X52918D01*
X45876Y432000D02*
X45876Y432000D01*
X40000Y432000D02*
X45876D01*
X90500Y30738D02*
Y267750D01*
X16000Y370103D02*
X19397Y373500D01*
X84000Y494750D02*
X85000D01*
X100500Y479250D01*
X185750Y315250D02*
X230511Y270489D01*
D14*
X96250Y348250D02*
X113000Y365000D01*
X140750D01*
X149500Y416000D02*
X212510Y352990D01*
Y333016D02*
Y352990D01*
X687000Y151500D02*
X695000Y159500D01*
X687000Y120750D02*
Y151500D01*
X667750Y120750D02*
X687000D01*
X667250Y120250D02*
X667750Y120750D01*
X215000Y96000D02*
Y113250D01*
X217250Y115500D01*
X318015Y58753D02*
Y59458D01*
X230000Y236500D02*
X233000D01*
X207000Y259500D02*
X230000Y236500D01*
X318015Y59458D02*
X334308Y75750D01*
X402500D02*
X402500Y75750D01*
X422750D01*
X423000Y75500D01*
X53250Y348250D02*
X92000D01*
X96250D01*
X207000Y259500D02*
Y263000D01*
X354000Y534000D02*
X593000D01*
X441500Y248250D02*
X460500D01*
X460750Y248500D01*
X623250Y451253D02*
Y503750D01*
X593000Y534000D02*
X623250Y503750D01*
X307250Y97750D02*
X387172D01*
X19397Y373500D02*
X74397D01*
Y394250D01*
X19397Y463500D02*
X23397Y467500D01*
X16750Y460853D02*
X19397Y463500D01*
X250000Y291750D02*
Y305500D01*
X431500Y227250D02*
Y237692D01*
Y227250D02*
X433750Y225000D01*
X429000Y240192D02*
Y363500D01*
Y240192D02*
X431500Y237692D01*
X429000Y363500D02*
X433875Y368375D01*
X307250Y97750D02*
Y117000D01*
X241500Y97750D02*
X307250D01*
X393422Y91500D02*
X396250D01*
X387172Y97750D02*
X393422Y91500D01*
X238250Y94500D02*
X241500Y97750D01*
X235000Y94500D02*
X238250D01*
X234750Y94250D02*
X235000Y94500D01*
X70397Y467500D02*
X74397Y463500D01*
X743750Y54500D02*
X762500Y35750D01*
X743750Y54500D02*
Y74250D01*
X16750Y376147D02*
X19397Y373500D01*
X16750Y376147D02*
Y460853D01*
X74397Y394250D02*
Y402500D01*
X149500Y416000D02*
Y436500D01*
X114750Y339750D02*
Y357500D01*
X112000Y440500D02*
X116750Y445250D01*
X186781D01*
X187509Y444522D01*
X334308Y75750D02*
X402500D01*
D15*
X933750Y389000D02*
Y413000D01*
Y342500D02*
Y389000D01*
X732750Y375250D02*
Y413000D01*
Y342500D02*
Y375250D01*
X933750Y274000D02*
Y342500D01*
Y203500D02*
Y274000D01*
X888750Y203500D02*
Y274000D01*
X810750Y203500D02*
Y274000D01*
X888750Y342500D02*
Y413000D01*
X810750Y303500D02*
Y374000D01*
X777750Y342500D02*
Y413000D01*
X855750Y303500D02*
Y374000D01*
Y274000D02*
Y303500D01*
Y203500D02*
Y274000D01*
Y174000D02*
Y203500D01*
X855750Y174000D02*
X855750Y174000D01*
X855750Y103500D02*
Y174000D01*
X810750Y103500D02*
Y174000D01*
X777750Y203500D02*
Y274000D01*
Y342500D01*
X728250Y203000D02*
Y273500D01*
D16*
X116750Y99000D02*
X186000D01*
X186500Y99500D01*
Y109750D01*
X202000Y125250D01*
D17*
X50000Y50000D02*
D03*
Y520000D02*
D03*
X900000D02*
D03*
Y50000D02*
D03*
D18*
X784750Y534000D02*
D03*
X829000D02*
D03*
X309750D02*
D03*
X354000D02*
D03*
X184500D02*
D03*
X228750D02*
D03*
X732750Y413000D02*
D03*
X777750D02*
D03*
Y342500D02*
D03*
X732750D02*
D03*
X810750Y374000D02*
D03*
X855750D02*
D03*
Y303500D02*
D03*
X810750D02*
D03*
X888750Y413000D02*
D03*
X933750D02*
D03*
Y342500D02*
D03*
X888750D02*
D03*
X732750Y274000D02*
D03*
X777750D02*
D03*
Y203500D02*
D03*
X732750D02*
D03*
X810750Y274000D02*
D03*
X855750D02*
D03*
Y203500D02*
D03*
X810750D02*
D03*
X888750Y274000D02*
D03*
X933750D02*
D03*
Y203500D02*
D03*
X888750D02*
D03*
X810750Y174000D02*
D03*
X855750D02*
D03*
Y103500D02*
D03*
X810750D02*
D03*
D19*
X769750Y506750D02*
D03*
X844000D02*
D03*
X294750D02*
D03*
X369000D02*
D03*
X169500D02*
D03*
X243750D02*
D03*
D20*
X683400Y38750D02*
D03*
Y538500D02*
D03*
X123500D02*
D03*
Y38750D02*
D03*
D21*
X162200Y38650D02*
D03*
X187600D02*
D03*
X213000D02*
D03*
X238400D02*
D03*
X263800D02*
D03*
X289200D02*
D03*
X314600D02*
D03*
X340000D02*
D03*
X365400D02*
D03*
X390800D02*
D03*
X416200D02*
D03*
X441600D02*
D03*
X467000D02*
D03*
X492400D02*
D03*
X517800D02*
D03*
X543200D02*
D03*
X568600D02*
D03*
X594000D02*
D03*
X619400D02*
D03*
X644800D02*
D03*
D22*
X16250Y302250D02*
D03*
Y322250D02*
D03*
D23*
X49397Y396500D02*
D03*
Y440500D02*
D03*
D24*
X443250Y451253D02*
D03*
X463250D02*
D03*
X483250D02*
D03*
X503250D02*
D03*
X523250D02*
D03*
X543250D02*
D03*
X563250D02*
D03*
X583250D02*
D03*
X603250D02*
D03*
X623250D02*
D03*
D25*
X525000Y314250D02*
D03*
Y294250D02*
D03*
Y274250D02*
D03*
Y254250D02*
D03*
Y234250D02*
D03*
Y214250D02*
D03*
Y194250D02*
D03*
Y174250D02*
D03*
Y154250D02*
D03*
Y134250D02*
D03*
D26*
X177750Y235750D02*
D03*
X263513Y159258D02*
D03*
X230511Y271013D02*
D03*
X239750Y272500D02*
D03*
X140750Y365000D02*
D03*
X212510Y333016D02*
D03*
X55000Y467500D02*
D03*
X352750Y24000D02*
D03*
X687000Y120750D02*
D03*
X90000Y12000D02*
D03*
X215000Y96000D02*
D03*
X240000Y72000D02*
D03*
X237000Y103500D02*
D03*
X217250Y115500D02*
D03*
X318015Y58753D02*
D03*
X299000Y114000D02*
D03*
X239000Y130000D02*
D03*
X233000Y236500D02*
D03*
X240250Y149500D02*
D03*
X298750Y153500D02*
D03*
X276000Y203000D02*
D03*
X265000Y239250D02*
D03*
X300000Y252000D02*
D03*
X357750Y78000D02*
D03*
X343500Y80750D02*
D03*
X423000Y75500D02*
D03*
X402500Y75750D02*
D03*
X331750Y120500D02*
D03*
X325000Y140500D02*
D03*
X350500Y153000D02*
D03*
X360250Y164750D02*
D03*
X355250Y227500D02*
D03*
X429000Y200500D02*
D03*
X53250Y348250D02*
D03*
X92000D02*
D03*
X207000Y263000D02*
D03*
X275500Y284000D02*
D03*
X284000Y460000D02*
D03*
X299000Y310000D02*
D03*
X284000Y340000D02*
D03*
X320500Y283250D02*
D03*
X315000Y342000D02*
D03*
X300000Y372000D02*
D03*
X285000Y402000D02*
D03*
X330000Y372000D02*
D03*
X315000Y402000D02*
D03*
X329000Y430000D02*
D03*
X344000Y280000D02*
D03*
X345000Y342000D02*
D03*
X359000Y310000D02*
D03*
X375000Y342000D02*
D03*
X360000Y372000D02*
D03*
X359000Y430000D02*
D03*
X405000Y342000D02*
D03*
X389000Y430000D02*
D03*
X402000Y367250D02*
D03*
X300000Y432000D02*
D03*
X314000Y460000D02*
D03*
X330000Y492000D02*
D03*
X375000Y462000D02*
D03*
X345000D02*
D03*
X420000Y432000D02*
D03*
X390000Y492000D02*
D03*
X404000Y460000D02*
D03*
X405000Y522000D02*
D03*
X420000Y492000D02*
D03*
X434000Y520000D02*
D03*
X479000Y70000D02*
D03*
X568500Y74250D02*
D03*
X644000Y160000D02*
D03*
X614000D02*
D03*
X499000Y198000D02*
D03*
X599000Y190000D02*
D03*
X570000Y192000D02*
D03*
X441500Y248250D02*
D03*
X460750Y248500D02*
D03*
X449000Y310000D02*
D03*
X494000Y280000D02*
D03*
X555000Y222000D02*
D03*
X569000Y250000D02*
D03*
X645000Y222000D02*
D03*
X585000D02*
D03*
X615000D02*
D03*
X584000Y280000D02*
D03*
X555000Y282000D02*
D03*
X599000Y250000D02*
D03*
X615000Y282000D02*
D03*
X645000D02*
D03*
X810000Y12000D02*
D03*
X773500Y12500D02*
D03*
X839000Y10000D02*
D03*
X825000Y42000D02*
D03*
X683500Y106750D02*
D03*
X694250Y139250D02*
D03*
X839000Y70000D02*
D03*
X794000Y160000D02*
D03*
X809000Y70000D02*
D03*
X869000Y10000D02*
D03*
X854000Y40000D02*
D03*
X914000Y100000D02*
D03*
X869000Y130000D02*
D03*
X885000Y102000D02*
D03*
X840000Y132000D02*
D03*
X884000Y160000D02*
D03*
X899000Y130000D02*
D03*
X914000Y160000D02*
D03*
X930000Y132000D02*
D03*
X659000Y190000D02*
D03*
X675000Y222000D02*
D03*
X765000Y162000D02*
D03*
Y222000D02*
D03*
X660000Y252000D02*
D03*
X674000Y280000D02*
D03*
X689000Y250000D02*
D03*
X704000Y280000D02*
D03*
X749000Y310000D02*
D03*
X825000Y162000D02*
D03*
X794000Y220000D02*
D03*
X839000Y190000D02*
D03*
X869000D02*
D03*
X900000Y192000D02*
D03*
X840000Y252000D02*
D03*
X795000Y282000D02*
D03*
X915000Y222000D02*
D03*
X870000Y252000D02*
D03*
X899000Y310000D02*
D03*
X554000Y340000D02*
D03*
X525000Y342000D02*
D03*
X569000Y310000D02*
D03*
X584000Y340000D02*
D03*
X494000Y400000D02*
D03*
X452500Y413250D02*
D03*
X524000Y400000D02*
D03*
X554000D02*
D03*
X585000Y402000D02*
D03*
X600000Y312000D02*
D03*
X615000Y342000D02*
D03*
X629000Y310000D02*
D03*
X660000Y312000D02*
D03*
X615000Y402000D02*
D03*
X600000Y432000D02*
D03*
X645000Y342000D02*
D03*
X630000Y432000D02*
D03*
X644000Y400000D02*
D03*
X479000Y490000D02*
D03*
X449000D02*
D03*
X539000D02*
D03*
X509000D02*
D03*
X464000Y520000D02*
D03*
X495000Y522000D02*
D03*
X570000Y492000D02*
D03*
X524000Y520000D02*
D03*
X554000D02*
D03*
X600000Y492000D02*
D03*
X630000D02*
D03*
X645000Y462000D02*
D03*
X615000Y522000D02*
D03*
X585000D02*
D03*
X652000Y557000D02*
D03*
Y538000D02*
D03*
X689000Y310000D02*
D03*
X674000Y340000D02*
D03*
X749750Y353500D02*
D03*
X749000Y370000D02*
D03*
X675000Y402000D02*
D03*
X690000Y432000D02*
D03*
X705000Y402000D02*
D03*
X719000Y430000D02*
D03*
X749000D02*
D03*
X794000Y340000D02*
D03*
X765000Y402000D02*
D03*
X824000Y340000D02*
D03*
X794000Y400000D02*
D03*
X854000D02*
D03*
X825000Y402000D02*
D03*
X779000Y430000D02*
D03*
X929000D02*
D03*
X869000D02*
D03*
X899000D02*
D03*
X704000Y460000D02*
D03*
X675000Y462000D02*
D03*
X764000Y460000D02*
D03*
X734000D02*
D03*
X689000Y490000D02*
D03*
X720000Y492000D02*
D03*
X750000D02*
D03*
X720000Y552000D02*
D03*
X794000Y520000D02*
D03*
X810000Y432000D02*
D03*
X824000Y460000D02*
D03*
X840000Y432000D02*
D03*
X854000Y460000D02*
D03*
X884000D02*
D03*
X795000Y462000D02*
D03*
X809000Y490000D02*
D03*
X930000Y492000D02*
D03*
X839000Y550000D02*
D03*
X869000D02*
D03*
X193750Y158750D02*
D03*
X223500Y103250D02*
D03*
X333000Y84750D02*
D03*
X33000Y291000D02*
D03*
X95000D02*
D03*
X194000Y354000D02*
D03*
X663000Y385000D02*
D03*
X654750Y324750D02*
D03*
X318250Y130750D02*
D03*
X255000Y460000D02*
D03*
Y400000D02*
D03*
X240000Y370000D02*
D03*
Y310000D02*
D03*
X165000Y460000D02*
D03*
X240000Y430000D02*
D03*
X90000Y550000D02*
D03*
X210000Y70000D02*
D03*
X180000D02*
D03*
X150000Y190000D02*
D03*
X135000Y220000D02*
D03*
X75000D02*
D03*
X60000Y190000D02*
D03*
Y130000D02*
D03*
X30000Y190000D02*
D03*
X45000Y160000D02*
D03*
X30000Y130000D02*
D03*
X709785Y13751D02*
D03*
X225000Y139000D02*
D03*
X133250Y434500D02*
D03*
X190250Y434000D02*
D03*
X288750Y153000D02*
D03*
X221000Y76250D02*
D03*
X218500Y158500D02*
D03*
X68750Y322500D02*
D03*
X263250Y539500D02*
D03*
X175000Y250000D02*
D03*
X160000Y240000D02*
D03*
X150000D02*
D03*
X130000D02*
D03*
X115000Y150000D02*
D03*
Y130000D02*
D03*
X433750Y225000D02*
D03*
X703500Y338750D02*
D03*
X703250Y349500D02*
D03*
X908000Y386500D02*
D03*
X703250Y359750D02*
D03*
X355000Y132500D02*
D03*
X364000D02*
D03*
X346000D02*
D03*
X412750Y145500D02*
D03*
X377500Y147250D02*
D03*
X377250Y235500D02*
D03*
X425000Y235000D02*
D03*
X395250Y214250D02*
D03*
X381019Y111255D02*
D03*
X392500Y111250D02*
D03*
X361750Y200000D02*
D03*
X346750Y199500D02*
D03*
X335250Y200000D02*
D03*
X354250Y184250D02*
D03*
X308265Y164758D02*
D03*
X315265Y159508D02*
D03*
X429021Y153507D02*
D03*
X421021Y149257D02*
D03*
X370000Y112500D02*
D03*
X355250D02*
D03*
X373250Y132250D02*
D03*
X315250Y142250D02*
D03*
X315265Y151007D02*
D03*
X319266Y240512D02*
D03*
X319000Y232000D02*
D03*
X269750Y212250D02*
D03*
X433875Y368375D02*
D03*
X341250Y69250D02*
D03*
X365500Y62500D02*
D03*
X275750Y109500D02*
D03*
X234750Y94250D02*
D03*
X208250Y245000D02*
D03*
X200250Y547250D02*
D03*
X307250Y117000D02*
D03*
X396250Y91500D02*
D03*
X791000Y66000D02*
D03*
X582250Y86000D02*
D03*
X657000Y19250D02*
D03*
X250000Y291750D02*
D03*
X762500Y35750D02*
D03*
X743750Y74250D02*
D03*
X667250Y120250D02*
D03*
X695000Y159500D02*
D03*
X23250Y406750D02*
D03*
X77250Y312750D02*
D03*
X40000Y432000D02*
D03*
X62750Y312500D02*
D03*
X116750Y99000D02*
D03*
X116250Y255750D02*
D03*
X125000Y255500D02*
D03*
X186500Y99500D02*
D03*
X291750Y118500D02*
D03*
X177750Y155500D02*
D03*
Y166500D02*
D03*
Y177500D02*
D03*
Y199500D02*
D03*
Y221500D02*
D03*
X314750Y170750D02*
D03*
X318000Y188500D02*
D03*
X325250Y180500D02*
D03*
X247762Y197760D02*
D03*
X254000Y155250D02*
D03*
X16000Y343250D02*
D03*
X74397Y394250D02*
D03*
X298500Y196000D02*
D03*
X202000Y125250D02*
D03*
X129250Y167500D02*
D03*
X41750Y221000D02*
D03*
X42000Y364250D02*
D03*
X158250Y287500D02*
D03*
X96500Y506500D02*
D03*
X107500Y490750D02*
D03*
X84000Y494750D02*
D03*
X149500Y436500D02*
D03*
X197000Y342000D02*
D03*
X128250Y354750D02*
D03*
X114750Y339750D02*
D03*
Y357500D02*
D03*
X112000Y440500D02*
D03*
X187509Y444522D02*
D03*
M02*
