G04 Layer_Color=65535*
%FSLAX44Y44*%
%MOMM*%
G71*
G01*
G75*
%ADD12C,0.2000*%
%ADD60C,0.1500*%
%ADD61C,0.2540*%
D12*
X761079Y443000D02*
X747750D01*
X761079Y456329D01*
Y459661D01*
X757747Y462994D01*
X751082D01*
X747750Y459661D01*
X767744D02*
X771076Y462994D01*
X777740D01*
X781073Y459661D01*
Y446332D01*
X777740Y443000D01*
X771076D01*
X767744Y446332D01*
Y459661D01*
X787737Y443000D02*
Y446332D01*
X791069D01*
Y443000D01*
X787737D01*
X804398Y459661D02*
X807731Y462994D01*
X814395D01*
X817727Y459661D01*
Y446332D01*
X814395Y443000D01*
X807731D01*
X804398Y446332D01*
Y459661D01*
X824392Y462994D02*
X837721D01*
Y459661D01*
X824392Y446332D01*
Y443000D01*
X844386D02*
Y446332D01*
X847718D01*
Y443000D01*
X844386D01*
X874376D02*
X861047D01*
X874376Y456329D01*
Y459661D01*
X871044Y462994D01*
X864379D01*
X861047Y459661D01*
X881040D02*
X884373Y462994D01*
X891037D01*
X894369Y459661D01*
Y446332D01*
X891037Y443000D01*
X884373D01*
X881040Y446332D01*
Y459661D01*
X901034Y443000D02*
X907698D01*
X904366D01*
Y462994D01*
X901034Y459661D01*
X917695D02*
X921027Y462994D01*
X927692D01*
X931024Y459661D01*
Y456329D01*
X927692Y452997D01*
X931024Y449664D01*
Y446332D01*
X927692Y443000D01*
X921027D01*
X917695Y446332D01*
Y449664D01*
X921027Y452997D01*
X917695Y456329D01*
Y459661D01*
X921027Y452997D02*
X927692D01*
X132744Y428492D02*
X127745Y433490D01*
X117748D01*
X112750Y428492D01*
Y408498D01*
X117748Y403500D01*
X127745D01*
X132744Y408498D01*
X142740Y433490D02*
Y403500D01*
Y418495D01*
X147739Y423493D01*
X157735D01*
X162734Y418495D01*
Y403500D01*
X172731D02*
X182727D01*
X177729D01*
Y423493D01*
X172731D01*
X197722Y393503D02*
Y423493D01*
X212718D01*
X217716Y418495D01*
Y408498D01*
X212718Y403500D01*
X197722D01*
X232711Y428492D02*
Y423493D01*
X227713D01*
X237710D01*
X232711D01*
Y408498D01*
X237710Y403500D01*
X252705Y423493D02*
Y408498D01*
X257703Y403500D01*
X272698D01*
Y423493D01*
X282695Y403500D02*
Y423493D01*
X297690D01*
X302689Y418495D01*
Y403500D01*
X327680D02*
X317684D01*
X312685Y408498D01*
Y418495D01*
X317684Y423493D01*
X327680D01*
X332679Y418495D01*
Y413497D01*
X312685D01*
X342676Y403500D02*
Y433490D01*
X357671D01*
X362669Y428492D01*
Y418495D01*
X357671Y413497D01*
X342676D01*
X372666Y403500D02*
X382663D01*
X377664D01*
Y433490D01*
X372666D01*
X402656Y423493D02*
X412653D01*
X417651Y418495D01*
Y403500D01*
X402656D01*
X397658Y408498D01*
X402656Y413497D01*
X417651D01*
X427648Y423493D02*
Y408498D01*
X432646Y403500D01*
X447642D01*
Y398502D01*
X442643Y393503D01*
X437645D01*
X447642Y403500D02*
Y423493D01*
X472634Y403500D02*
X462637D01*
X457638Y408498D01*
Y418495D01*
X462637Y423493D01*
X472634D01*
X477632Y418495D01*
Y413497D01*
X457638D01*
X487629Y423493D02*
Y403500D01*
Y413497D01*
X492627Y418495D01*
X497625Y423493D01*
X502624D01*
X517619Y418495D02*
X537612D01*
X567603Y403500D02*
X547609D01*
X567603Y423493D01*
Y428492D01*
X562604Y433490D01*
X552608D01*
X547609Y428492D01*
X577599Y403500D02*
Y408498D01*
X582598D01*
Y403500D01*
X577599D01*
X622585D02*
X602591D01*
X622585Y423493D01*
Y428492D01*
X617587Y433490D01*
X607590D01*
X602591Y428492D01*
X652575Y403500D02*
X632582D01*
X652575Y423493D01*
Y428492D01*
X647577Y433490D01*
X637580D01*
X632582Y428492D01*
X112750Y356250D02*
Y386240D01*
X122747Y376244D01*
X132744Y386240D01*
Y356250D01*
X147739Y376244D02*
X157735D01*
X162734Y371245D01*
Y356250D01*
X147739D01*
X142740Y361248D01*
X147739Y366247D01*
X162734D01*
X172731Y356250D02*
X182727D01*
X177729D01*
Y376244D01*
X172731D01*
X197722Y356250D02*
Y376244D01*
X212718D01*
X217716Y371245D01*
Y356250D01*
X227713Y386240D02*
Y356250D01*
X242708D01*
X247706Y361248D01*
Y366247D01*
X242708Y371245D01*
X227713D01*
X242708D01*
X247706Y376244D01*
Y381242D01*
X242708Y386240D01*
X227713D01*
X262701Y356250D02*
X272698D01*
X277697Y361248D01*
Y371245D01*
X272698Y376244D01*
X262701D01*
X257703Y371245D01*
Y361248D01*
X262701Y356250D01*
X292692Y376244D02*
X302689D01*
X307687Y371245D01*
Y356250D01*
X292692D01*
X287693Y361248D01*
X292692Y366247D01*
X307687D01*
X317684Y376244D02*
Y356250D01*
Y366247D01*
X322682Y371245D01*
X327680Y376244D01*
X332679D01*
X367668Y386240D02*
Y356250D01*
X352672D01*
X347674Y361248D01*
Y371245D01*
X352672Y376244D01*
X367668D01*
X407654D02*
X417651Y356250D01*
X427648Y376244D01*
X457638Y356250D02*
X437645D01*
X457638Y376244D01*
Y381242D01*
X452640Y386240D01*
X442643D01*
X437645Y381242D01*
X467635Y356250D02*
Y361248D01*
X472634D01*
Y356250D01*
X467635D01*
X492627Y381242D02*
X497625Y386240D01*
X507622D01*
X512621Y381242D01*
Y361248D01*
X507622Y356250D01*
X497625D01*
X492627Y361248D01*
Y381242D01*
D60*
X950000Y520000D02*
G03*
X900000Y570000I-50000J0D01*
G01*
Y0D02*
G03*
X950000Y50000I-0J50000D01*
G01*
X0D02*
G03*
X50000Y0I50000J0D01*
G01*
Y570000D02*
G03*
X0Y520000I0J-50000D01*
G01*
X711700Y541825D02*
G03*
X686700Y566825I-25000J0D01*
G01*
X120200D02*
G03*
X95200Y541825I0J-25000D01*
G01*
Y35325D02*
G03*
X120200Y10325I25000J0D01*
G01*
X686700D02*
G03*
X711700Y35325I0J25000D01*
G01*
X50000Y570000D02*
X900000D01*
X950000Y50000D02*
Y520000D01*
X50000Y0D02*
X900000D01*
X0Y50000D02*
Y520000D01*
X719500Y426250D02*
X791000D01*
Y329250D02*
Y426250D01*
X719500Y329250D02*
Y426250D01*
Y329250D02*
X791000D01*
X797500Y387250D02*
X869000D01*
Y290250D02*
Y387250D01*
X797500Y290250D02*
Y387250D01*
Y290250D02*
X869000D01*
X875500Y426250D02*
X947000D01*
Y329250D02*
Y426250D01*
X875500Y329250D02*
Y426250D01*
Y329250D02*
X947000D01*
X719500Y287250D02*
X791000D01*
Y190250D02*
Y287250D01*
X719500Y190250D02*
Y287250D01*
Y190250D02*
X791000D01*
X797500Y287250D02*
X869000D01*
Y190250D02*
Y287250D01*
X797500Y190250D02*
Y287250D01*
Y190250D02*
X869000D01*
X875500Y287250D02*
X947000D01*
Y190250D02*
Y287250D01*
X875500Y190250D02*
Y287250D01*
Y190250D02*
X947000D01*
X797500Y187250D02*
X869000D01*
Y90250D02*
Y187250D01*
X797500Y90250D02*
Y187250D01*
Y90250D02*
X869000D01*
X120200Y566825D02*
X686700D01*
X95150Y35375D02*
Y541775D01*
X120200Y10325D02*
X686700D01*
X711700Y35325D02*
Y541825D01*
X75897Y355250D02*
X92647D01*
Y481750D01*
X3647D02*
X92647D01*
X3647Y364750D02*
Y481750D01*
Y355250D02*
X72397D01*
X3647D02*
Y364750D01*
X72397Y355250D02*
X75897D01*
D61*
X742250Y386485D02*
Y371250D01*
X749868D01*
X752407Y373789D01*
Y376328D01*
X749868Y378867D01*
X742250D01*
X749868D01*
X752407Y381407D01*
Y383946D01*
X749868Y386485D01*
X742250D01*
X765103Y371250D02*
Y386485D01*
X757485Y378867D01*
X767642D01*
X819250Y347485D02*
Y332250D01*
X826868D01*
X829407Y334789D01*
Y337328D01*
X826868Y339868D01*
X819250D01*
X826868D01*
X829407Y342407D01*
Y344946D01*
X826868Y347485D01*
X819250D01*
X844642D02*
X834485D01*
Y339868D01*
X839563Y342407D01*
X842103D01*
X844642Y339868D01*
Y334789D01*
X842103Y332250D01*
X837024D01*
X834485Y334789D01*
X895750Y386485D02*
Y371250D01*
X903367D01*
X905907Y373789D01*
Y376328D01*
X903367Y378867D01*
X895750D01*
X903367D01*
X905907Y381407D01*
Y383946D01*
X903367Y386485D01*
X895750D01*
X921142D02*
X916063Y383946D01*
X910985Y378867D01*
Y373789D01*
X913524Y371250D01*
X918603D01*
X921142Y373789D01*
Y376328D01*
X918603Y378867D01*
X910985D01*
X742500Y246235D02*
Y231000D01*
X750117D01*
X752657Y233539D01*
Y236078D01*
X750117Y238617D01*
X742500D01*
X750117D01*
X752657Y241157D01*
Y243696D01*
X750117Y246235D01*
X742500D01*
X757735D02*
X767892D01*
Y243696D01*
X757735Y233539D01*
Y231000D01*
X819250Y246235D02*
Y231000D01*
X826868D01*
X829407Y233539D01*
Y236078D01*
X826868Y238617D01*
X819250D01*
X826868D01*
X829407Y241157D01*
Y243696D01*
X826868Y246235D01*
X819250D01*
X834485Y243696D02*
X837024Y246235D01*
X842103D01*
X844642Y243696D01*
Y241157D01*
X842103Y238617D01*
X844642Y236078D01*
Y233539D01*
X842103Y231000D01*
X837024D01*
X834485Y233539D01*
Y236078D01*
X837024Y238617D01*
X834485Y241157D01*
Y243696D01*
X837024Y238617D02*
X842103D01*
X899750Y246235D02*
Y231000D01*
X907367D01*
X909907Y233539D01*
Y236078D01*
X907367Y238617D01*
X899750D01*
X907367D01*
X909907Y241157D01*
Y243696D01*
X907367Y246235D01*
X899750D01*
X914985Y233539D02*
X917524Y231000D01*
X922603D01*
X925142Y233539D01*
Y243696D01*
X922603Y246235D01*
X917524D01*
X914985Y243696D01*
Y241157D01*
X917524Y238617D01*
X925142D01*
X814500Y147985D02*
Y132750D01*
X822117D01*
X824657Y135289D01*
Y137828D01*
X822117Y140367D01*
X814500D01*
X822117D01*
X824657Y142907D01*
Y145446D01*
X822117Y147985D01*
X814500D01*
X829735Y132750D02*
X834813D01*
X832274D01*
Y147985D01*
X829735Y145446D01*
X842431D02*
X844970Y147985D01*
X850049D01*
X852588Y145446D01*
Y135289D01*
X850049Y132750D01*
X844970D01*
X842431Y135289D01*
Y145446D01*
X380250Y296735D02*
Y281500D01*
X390407D01*
X405642Y294196D02*
X403103Y296735D01*
X398024D01*
X395485Y294196D01*
Y284039D01*
X398024Y281500D01*
X403103D01*
X405642Y284039D01*
X410720Y296735D02*
Y281500D01*
X418338D01*
X420877Y284039D01*
Y294196D01*
X418338Y296735D01*
X410720D01*
X425955Y281500D02*
X431034D01*
X428494D01*
Y296735D01*
X425955Y294196D01*
X11147Y425985D02*
X21304Y410750D01*
Y425985D02*
X11147Y410750D01*
X36539Y423446D02*
X34000Y425985D01*
X28922D01*
X26382Y423446D01*
Y420907D01*
X28922Y418368D01*
X34000D01*
X36539Y415828D01*
Y413289D01*
X34000Y410750D01*
X28922D01*
X26382Y413289D01*
X51774Y410750D02*
X41617D01*
X51774Y420907D01*
Y423446D01*
X49235Y425985D01*
X44157D01*
X41617Y423446D01*
M02*
